<?xml version="1.0" encoding="utf-8"?>
<!-- Generator: Adobe Illustrator 26.3.1, SVG Export Plug-In . SVG Version: 6.00 Build 0)  -->
<svg version="1.2" baseProfile="tiny" id="my-name-is"
	 xmlns="http://www.w3.org/2000/svg" xmlns:xlink="http://www.w3.org/1999/xlink" x="0px" y="0px" viewBox="0 0 599.22 149.68"
	 overflow="visible" xml:space="preserve">
<path stroke="#000000" d="M24.7,1.5c-0.62,1.44-1.02,3.36-1.98,7.45c-0.96,4.1-1.57,6.87-2.82,13.02
	c-1.24,6.15-2.09,10.33-3.41,17.74c-1.33,7.42-1.94,11.64-3.22,19.33s-1.98,11.85-3.17,19.12S8.32,89.28,7.32,95.4
	c-1,6.11-1.56,9.06-2.22,13.33c-0.67,4.27-0.93,5.71-1.11,8.01c-0.18,2.31,0.08,2.77,0.21,3.52c0.14,0.74,0.36,0.18,0.47,0.21
	c0.1,0.04-0.01,0,0.06-0.03s0.06,0.57,0.29-0.12c0.24-0.7,0.56-1.09,0.9-3.36c0.33-2.27,0.25-3.73,0.79-8
	c0.53-4.27,0.98-7.24,1.88-13.37c0.91-6.12,1.47-9.98,2.64-17.25c1.16-7.27,1.86-11.43,3.17-19.11s1.96-11.9,3.36-19.29
	c1.39-7.39,2.3-11.53,3.63-17.66c1.32-6.12,2.12-8.84,3.01-12.95c0.88-4.11,1.37-6.01,1.43-7.58C25.89,0.19,25.32,0.06,24.7,1.5"/>
<path stroke="#000000" d="M50.1,11.72c-0.09,1.73,0.35,4.12,0.73,8.53c0.37,4.41,0.72,7.38,1.16,13.52
	c0.45,6.15,0.78,10.36,1.06,17.22c0.28,6.87,0.35,10.6,0.35,17.13c-0.01,6.52-0.1,9.81-0.38,15.5c-0.28,5.7-0.56,8.63-1,12.98
	s-0.89,6.06-1.21,8.77c-0.33,2.7-0.47,3.77-0.4,4.75s0.31,1.05,0.76,0.15c0.44-0.89,0.97-1.92,1.48-4.62c0.5-2.71,0.7-4.51,1.06-8.9
	c0.35-4.39,0.51-7.34,0.71-13.07c0.2-5.73,0.29-9.01,0.29-15.56s-0.03-10.29-0.27-17.18c-0.23-6.89-0.52-11.1-0.9-17.27
	c-0.39-6.17-0.6-9.16-1.05-13.58c-0.44-4.41-0.71-6.83-1.19-8.51C50.82,9.91,50.2,9.98,50.1,11.72"/>
<path stroke="#000000" d="M1.17,74.48c0.88,0.33,1.87,0.6,4.37,0.53c2.5-0.06,4.2-0.43,8.12-0.87c3.93-0.44,6.59-0.74,11.49-1.33
	c4.91-0.59,7.8-1,13.03-1.61s8.16-0.97,13.1-1.45c4.95-0.48,7.44-0.78,11.62-0.97s6.15-0.23,9.29,0.01
	c3.13,0.24,4.41,0.38,6.39,1.18c1.99,0.81,2.5,1.31,3.53,2.84s1.17,2.59,1.64,4.8c0.47,2.22,0.51,3.62,0.7,6.27
	c0.19,2.64-0.03,4.44,0.23,6.97c0.27,2.52,0.55,4.14,1.11,5.65c0.55,1.52,1.22,1.6,1.67,1.94c0.45,0.33,0.51,0.18,0.58-0.28
	s-0.22-0.53-0.22-2.03s0.26-2.96,0.23-5.48c-0.02-2.51-0.02-4.33-0.34-7.08c-0.33-2.75-0.52-4.25-1.28-6.67
	c-0.77-2.41-1.14-3.61-2.54-5.4c-1.4-1.78-2.17-2.55-4.48-3.53c-2.31-0.97-3.75-1.14-7.07-1.35c-3.33-0.21-5.3,0.02-9.54,0.31
	c-4.25,0.29-6.72,0.61-11.69,1.12c-4.96,0.51-7.89,0.86-13.12,1.42c-5.24,0.55-8.13,0.9-13.05,1.35c-4.91,0.45-7.59,0.57-11.51,0.9
	c-3.93,0.34-5.63,0.44-8.09,0.77c-2.46,0.33-3.38,0.49-4.22,0.88C0.29,73.77,0.28,74.15,1.17,74.48"/>
<path d="M98.09,27.77c-0.01-0.27-0.09-0.51-0.24-0.74c-0.13-0.23-0.3-0.42-0.52-0.56c-0.19-0.18-0.42-0.3-0.68-0.36l-0.53-0.07
	c-0.36,0-0.7,0.09-1.01,0.27l-0.4,0.31c-0.25,0.25-0.42,0.54-0.51,0.88c-0.15,0.48-0.31,0.96-0.46,1.43
	c-0.08,0.27-0.1,0.53-0.04,0.8c0.01,0.27,0.09,0.51,0.24,0.74c0.13,0.23,0.3,0.42,0.52,0.56c0.19,0.18,0.42,0.3,0.68,0.36
	c0.18,0.02,0.35,0.05,0.53,0.07c0.36,0,0.7-0.09,1.01-0.27l0.4-0.31c0.25-0.25,0.42-0.54,0.51-0.88c0.15-0.48,0.31-0.96,0.46-1.43
	C98.13,28.3,98.15,28.04,98.09,27.77z"/>
<path stroke="#000000" d="M133.86,82.01c-0.24,0.47-0.04,0.77-0.18,2.12c-0.15,1.36-0.24,2.15-0.56,4.65
	c-0.32,2.5-0.29,4.17-1.04,7.85c-0.75,3.67-1.35,6.26-2.71,10.53c-1.37,4.26-2.49,6.93-4.12,10.81c-1.62,3.88-2.68,5.78-4,8.57
	c-1.32,2.8-2.22,4.24-2.57,5.42c-0.36,1.18-0.07,1.38,0.81,0.49c0.89-0.89,2.08-2.21,3.63-4.94c1.55-2.72,2.46-4.76,4.13-8.7
	c1.68-3.93,2.75-6.64,4.23-10.95c1.49-4.32,2.21-6.89,3.19-10.63c0.97-3.74,1.43-5.43,1.7-8.08c0.27-2.64-0.06-3.67-0.36-5.14
	c-0.3-1.48-0.72-1.83-1.15-2.23S134.09,81.54,133.86,82.01"/>
<path stroke="#000000" d="M215.64,57.13c-0.34,0.92-0.39,2.05-0.54,4.51c-0.15,2.45-0.11,4.3-0.2,7.76s0,5.9-0.23,9.55
	s-0.73,5.77-0.93,8.7c-0.2,2.94-0.29,4.23-0.07,5.98s0.48,2.39,1.16,2.78c0.68,0.38,1.14,0.2,2.24-0.85c1.1-1.05,1.91-2.03,3.27-4.4
	c1.35-2.38,1.99-4.39,3.53-7.5c1.53-3.11,2.51-5.21,4.15-8.06c1.63-2.85,2.58-4.37,4.01-6.18c1.44-1.8,2.09-2.5,3.15-2.85
	c1.05-0.34,1.55,0.01,2.14,1.13c0.59,1.11,0.57,2.28,0.81,4.46c0.23,2.18,0.11,3.91,0.36,6.45c0.24,2.53,0.32,4.21,0.85,6.22
	s0.77,3.07,1.79,3.84c1.02,0.76,1.77,0.73,3.33-0.03c1.56-0.75,2.64-1.85,4.46-3.73c1.81-1.89,2.66-3.44,4.63-5.69
	c1.98-2.26,3.28-3.69,5.24-5.59c1.97-1.91,3.03-2.94,4.58-3.92c1.55-0.98,2.11-1.16,3.16-0.98c1.05,0.17,1.46,0.69,2.08,1.86
	c0.61,1.17,0.62,2.1,0.98,3.96c0.36,1.86,0.44,3.26,0.82,5.32c0.38,2.07,0.6,3.34,1.07,5.01c0.48,1.67,0.84,2.72,1.31,3.36
	s0.79,0.58,1.05-0.16c0.27-0.75,0.28-1.82,0.28-3.57c-0.01-1.75-0.01-3.02-0.3-5.18c-0.29-2.15-0.51-3.57-1.17-5.59
	c-0.66-2.01-0.99-3.1-2.14-4.47c-1.15-1.38-1.96-2.04-3.62-2.4c-1.65-0.35-2.61-0.25-4.66,0.62s-3.35,1.84-5.6,3.73
	s-3.57,3.44-5.64,5.72c-2.06,2.28-3.13,3.69-4.69,5.69c-1.56,1.99-2.27,3.26-3.12,4.29c-0.85,1.03-0.94,1.35-1.12,0.86
	c-0.18-0.5,0.21-1.43,0.23-3.33c0.03-1.9,0.09-3.59-0.12-6.17c-0.2-2.58-0.27-4.37-0.92-6.73s-1.05-3.74-2.33-5.08
	c-1.29-1.33-2.32-1.82-4.09-1.59c-1.77,0.24-2.92,0.92-4.77,2.77s-2.7,3.58-4.5,6.49c-1.79,2.91-2.79,5-4.48,8.06
	c-1.69,3.07-2.8,4.83-3.96,7.28c-1.16,2.44-1.45,3.66-1.83,4.96c-0.37,1.29-0.16,1.69-0.06,1.54c0.1-0.16,0.28-0.7,0.56-2.31
	s0.52-2.85,0.85-5.76c0.32-2.9,0.55-5.1,0.78-8.79c0.22-3.69,0.26-6.15,0.33-9.65c0.08-3.51,0.22-5.38,0.03-7.86
	c-0.19-2.47-0.56-3.64-0.98-4.53C216.37,56.18,215.98,56.22,215.64,57.13"/>
<path stroke="#000000" d="M362.88,29.27c-0.25-0.6-0.73-1.3-1.91-2.02c-1.18-0.73-1.91-1.16-3.99-1.61s-3.49-0.99-6.41-0.64
	c-2.93,0.36-4.63,0.9-8.2,2.43c-3.58,1.52-5.71,2.58-9.66,5.18c-3.96,2.61-6.2,4.2-10.12,7.85c-3.91,3.64-6.15,5.95-9.45,10.38
	c-3.29,4.43-4.95,7.13-7.04,11.78c-2.09,4.66-2.87,7.2-3.41,11.48c-0.53,4.28-0.37,6.53,0.74,9.92c1.1,3.39,2.29,5.02,4.79,7.02
	c2.49,1.99,4.26,2.55,7.67,2.96c3.41,0.41,5.42,0.18,9.36-0.92c3.95-1.09,6.24-2.06,10.37-4.55c4.14-2.5,6.33-4.28,10.31-7.93
	c3.97-3.66,6.13-5.95,9.55-10.35c3.43-4.39,5.23-7.08,7.58-11.63c2.36-4.55,3.15-7.08,4.19-11.12s1.17-5.93,1.02-9.09
	c-0.15-3.15-0.66-4.53-1.77-6.68c-1.11-2.16-2.21-3-3.77-4.11c-1.55-1.11-2.7-1.19-4.02-1.46c-1.32-0.26-2.03-0.07-2.58,0.13
	c-0.55,0.21-0.55,0.54-0.15,0.9c0.4,0.36,1.06,0.44,2.14,0.91s1.96,0.51,3.24,1.44c1.28,0.93,2.22,1.41,3.16,3.21
	c0.95,1.8,1.37,2.92,1.56,5.78c0.19,2.87,0.28,4.67-0.62,8.53c-0.89,3.87-1.62,6.37-3.86,10.81c-2.25,4.44-4.01,7.1-7.37,11.4
	c-3.36,4.3-5.51,6.57-9.42,10.1s-6.11,5.23-10.13,7.57s-6.26,3.17-9.97,4.14c-3.7,0.97-5.53,1.05-8.56,0.7
	c-3.02-0.35-4.41-0.79-6.57-2.47c-2.17-1.68-3.23-2.92-4.26-5.92c-1.02-3-1.31-5.06-0.86-9.08c0.45-4.02,1.14-6.52,3.14-11.02
	c1.99-4.5,3.6-7.17,6.83-11.49c3.23-4.31,5.45-6.58,9.32-10.09c3.86-3.51,6.11-5.04,10.01-7.45c3.9-2.4,6.06-3.36,9.49-4.58
	c3.42-1.21,5-1.29,7.64-1.49c2.63-0.21,3.72,0.22,5.54,0.48c1.81,0.26,2.38,0.5,3.53,0.82c1.16,0.32,1.66,0.82,2.24,0.78
	C362.79,30.22,363.12,29.87,362.88,29.27"/>
<path d="M357.32,11.31c-0.06-0.26-0.18-0.49-0.36-0.68c-0.14-0.22-0.33-0.39-0.56-0.52l-0.48-0.2c-0.35-0.1-0.71-0.1-1.06,0
	l-0.48,0.2c-0.3,0.18-0.54,0.42-0.72,0.72c-0.32,0.64-0.64,1.27-0.95,1.91c-0.15,0.23-0.23,0.48-0.24,0.74
	c-0.06,0.27-0.05,0.53,0.04,0.8c0.06,0.26,0.18,0.49,0.36,0.68c0.14,0.22,0.33,0.39,0.56,0.52l0.48,0.2c0.35,0.1,0.71,0.1,1.06,0
	l0.48-0.2c0.3-0.18,0.54-0.42,0.72-0.72c0.32-0.64,0.64-1.27,0.95-1.91c0.15-0.23,0.23-0.48,0.24-0.74
	C357.42,11.84,357.41,11.58,357.32,11.31z"/>
<path d="M369.78,14.21c-0.06-0.26-0.18-0.49-0.36-0.68c-0.14-0.22-0.33-0.39-0.56-0.52l-0.48-0.2c-0.35-0.1-0.71-0.1-1.06,0
	l-0.48,0.2c-0.3,0.18-0.54,0.42-0.72,0.72c-0.48,0.64-0.95,1.27-1.43,1.91c-0.15,0.23-0.23,0.48-0.24,0.74
	c-0.06,0.27-0.05,0.53,0.04,0.8c0.06,0.26,0.18,0.49,0.36,0.68c0.14,0.22,0.33,0.39,0.56,0.52l0.48,0.2c0.35,0.1,0.71,0.1,1.06,0
	l0.48-0.2c0.3-0.18,0.54-0.42,0.72-0.72c0.48-0.64,0.95-1.27,1.43-1.91c0.15-0.23,0.23-0.48,0.24-0.74
	C369.88,14.74,369.87,14.48,369.78,14.21z"/>
<path stroke="#000000" d="M335.36,94.69c2.67,0.69,4.46,0.77,7.64,0.39c3.17-0.38,4.95-1.01,8.24-2.29c3.28-1.27,5.04-2.21,8.19-4.1
	c3.14-1.88,4.77-3.12,7.52-5.32c2.76-2.2,4.17-3.48,6.26-5.66c2.09-2.18,2.95-3.42,4.18-5.24c1.22-1.82,1.58-2.7,1.93-3.86
	c0.34-1.16,0.12-1.79-0.22-1.96c-0.34-0.16-0.97,0.21-1.48,1.12s-0.91,1.83-1.07,3.44c-0.17,1.62-0.17,2.81,0.24,4.63
	c0.42,1.82,0.83,2.94,1.84,4.47c1.02,1.54,1.62,2.23,3.24,3.2c1.62,0.97,2.67,1.31,4.87,1.65c2.2,0.33,3.46,0.32,6.15,0.02
	c2.7-0.3,4.31-0.65,7.33-1.53c3.02-0.88,4.79-1.53,7.77-2.86c2.98-1.32,4.47-2.23,7.13-3.76s4.02-2.42,6.17-3.9s3.13-2.27,4.58-3.49
	c1.44-1.22,1.95-1.76,2.65-2.61c0.69-0.86,0.79-1.21,0.82-1.67c0.03-0.46-0.3-0.69-0.67-0.65c-0.37,0.03-0.93,0.22-1.17,0.82
	c-0.25,0.6-0.34,1.26-0.06,2.18c0.29,0.93,0.8,1.33,1.49,2.45c0.7,1.11,1.15,1.69,1.98,3.11c0.83,1.43,1.35,2.32,2.18,4
	c0.84,1.68,1.37,2.62,2,4.39c0.62,1.76,0.98,2.73,1.12,4.43s0.02,2.5-0.43,4.07c-0.44,1.58-0.8,2.43-1.81,3.8
	c-1,1.37-1.71,1.94-3.21,3.06c-1.51,1.12-2.49,1.78-4.32,2.54s-2.95,0.9-4.83,1.25c-1.89,0.35-3.11,0.34-4.59,0.5
	c-1.49,0.15-1.96,0.25-2.83,0.28s-1.17-0.25-1.53-0.14c-0.37,0.1-0.55,0.3-0.31,0.68s0.55,0.82,1.49,1.21s1.56,0.65,3.22,0.75
	c1.66,0.11,2.96,0.13,5.08-0.21c2.11-0.35,3.41-0.62,5.49-1.52c2.08-0.9,3.2-1.64,4.92-3s2.51-2.11,3.68-3.8s1.61-2.72,2.17-4.64
	c0.56-1.93,0.7-2.95,0.63-4.99c-0.08-2.04-0.4-3.2-0.99-5.22s-1.13-3.03-1.96-4.86s-1.34-2.77-2.18-4.28
	c-0.85-1.51-1.37-2.22-2.06-3.27c-0.69-1.05-0.99-1.41-1.39-1.97c-0.39-0.57-0.34-0.58-0.61-0.86c-0.27-0.29-0.46-0.4-0.74-0.56
	c-0.28-0.15-0.25-0.33-0.65-0.2c-0.4,0.12-0.51,0.25-1.34,0.83s-1.32,1.03-2.81,2.08c-1.48,1.04-2.49,1.74-4.6,3.14
	c-2.12,1.4-3.42,2.36-5.98,3.86c-2.57,1.5-3.98,2.4-6.84,3.63c-2.86,1.23-4.59,1.76-7.46,2.52c-2.88,0.76-4.43,0.96-6.9,1.27
	s-3.57,0.43-5.44,0.28c-1.87-0.16-2.7-0.36-3.91-1.04c-1.2-0.68-1.54-1.16-2.12-2.37c-0.57-1.21-0.58-2.16-0.75-3.68
	s-0.02-2.49-0.1-3.92c-0.08-1.42-0.08-2.25-0.32-3.21c-0.23-0.95-0.42-1.48-0.87-1.56c-0.45-0.08-0.62,0.3-1.37,1.18
	c-0.74,0.89-1.06,1.61-2.34,3.24c-1.28,1.62-2.09,2.77-4.07,4.87c-1.98,2.1-3.21,3.48-5.82,5.63c-2.61,2.16-4.21,3.37-7.22,5.16
	c-3.02,1.78-4.75,2.64-7.86,3.77c-3.1,1.13-4.79,1.54-7.66,1.87L335.36,94.69L335.36,94.69z"/>
<path stroke="#000000" d="M490.79,73.67c-0.34-0.6-0.88-1.27-2.27-1.94c-1.39-0.68-2.39-1.15-4.68-1.45
	c-2.28-0.3-3.94-0.54-6.76-0.06c-2.81,0.47-4.44,1.1-7.32,2.44s-4.54,2.24-7.08,4.26c-2.54,2.01-3.8,3.42-5.61,5.81
	c-1.82,2.39-2.73,3.84-3.48,6.13c-0.74,2.29-0.89,3.59-0.27,5.32c0.63,1.74,1.53,2.62,3.38,3.36c1.84,0.74,3.23,0.79,5.83,0.34
	c2.6-0.44,4.15-1.18,7.17-2.58c3.02-1.39,4.88-2.49,7.92-4.39c3.03-1.9,4.65-3.19,7.25-5.12s3.94-3.1,5.75-4.54
	c1.82-1.44,2.61-2.17,3.34-2.67s0.49-0.51,0.31,0.18c-0.19,0.69-0.81,1.49-1.25,3.29s-0.79,3.38-0.94,5.7
	c-0.14,2.33-0.14,3.85,0.23,5.95c0.38,2.09,0.66,3.12,1.65,4.55c0.99,1.42,1.8,2.11,3.32,2.59c1.51,0.48,2.4,0.43,4.24-0.21
	s2.89-1.37,4.98-2.98c2.09-1.62,3.14-2.83,5.47-5.09c2.32-2.26,3.76-3.85,6.17-6.22c2.4-2.37,3.84-3.85,5.84-5.65
	c2.01-1.81,2.89-2.6,4.18-3.38c1.28-0.78,1.69-0.83,2.26-0.55c0.56,0.29,0.48,0.73,0.57,1.97c0.09,1.23-0.26,2.41-0.13,4.19
	s0.28,2.99,0.79,4.72c0.5,1.73,0.82,2.57,1.75,3.93c0.92,1.36,1.48,2.05,2.85,2.86c1.38,0.81,2.21,1.07,4,1.2
	c1.8,0.13,2.81-0.07,4.98-0.54c2.17-0.48,3.44-0.87,5.86-1.84c2.42-0.97,3.81-1.82,6.24-3.02c2.43-1.2,3.76-2.09,5.92-2.98
	c2.16-0.9,3.22-1.31,4.88-1.51c1.67-0.19,2.33-0.1,3.46,0.52s1.43,1.32,2.18,2.59c0.74,1.26,0.91,2.22,1.55,3.74
	c0.64,1.51,1.02,2.54,1.63,3.83c0.6,1.3,0.86,1.76,1.39,2.66c0.52,0.9,0.79,1.55,1.22,1.86c0.43,0.32,0.78,0.21,0.95-0.3
	c0.16-0.52,0.04-1.22-0.12-2.28c-0.16-1.05-0.25-1.59-0.69-3s-0.77-2.44-1.52-4.04c-0.76-1.61-1.13-2.57-2.24-3.98
	s-1.71-2.25-3.3-3.06c-1.59-0.82-2.57-1.05-4.66-1.02c-2.08,0.03-3.35,0.37-5.77,1.16c-2.42,0.8-3.83,1.68-6.31,2.83
	c-2.48,1.15-3.78,1.98-6.07,2.95c-2.29,0.96-3.46,1.33-5.36,1.88c-1.9,0.55-2.75,0.8-4.15,0.86c-1.4,0.05-1.92-0.04-2.85-0.58
	c-0.94-0.54-1.3-1.03-1.85-2.12c-0.54-1.09-0.6-1.79-0.86-3.33c-0.27-1.55-0.17-2.63-0.46-4.39c-0.28-1.77-0.32-3.03-0.98-4.45
	c-0.65-1.42-1.08-2.09-2.29-2.63c-1.2-0.55-1.94-0.67-3.74-0.08s-3.04,1.23-5.27,3.02c-2.22,1.8-3.45,3.54-5.88,5.94
	c-2.43,2.39-3.93,3.88-6.26,6.04s-3.52,3.19-5.4,4.77c-1.89,1.58-2.68,2.36-4.01,3.11c-1.32,0.76-1.72,0.89-2.62,0.65
	s-1.38-0.73-1.87-1.83c-0.49-1.09-0.58-1.84-0.57-3.65s0.46-3.18,0.62-5.39s0.25-3.75,0.17-5.66c-0.07-1.91-0.02-2.83-0.55-3.87
	c-0.54-1.05-0.79-1.45-2.11-1.35c-1.33,0.11-2.44,0.57-4.5,1.86s-3.24,2.68-5.81,4.6c-2.56,1.93-4.07,3.23-7.02,5.03
	c-2.96,1.8-4.88,2.7-7.74,3.97c-2.85,1.27-4.33,1.8-6.56,2.37c-2.22,0.58-3.2,0.76-4.55,0.49c-1.35-0.27-1.92-0.72-2.19-1.85
	c-0.28-1.13-0.02-2,0.83-3.82c0.84-1.81,1.71-3.12,3.39-5.26c1.69-2.14,2.71-3.59,5.03-5.42c2.31-1.83,3.91-2.62,6.55-3.74
	c2.64-1.11,4.13-1.47,6.64-1.83s3.89-0.1,5.91,0.02c2.03,0.12,2.85,0.35,4.2,0.58c1.34,0.23,1.91,0.66,2.53,0.57
	C490.86,74.62,491.14,74.27,490.79,73.67"/>
<path d="M592.84,98.78c-2.57,0-2.58,4,0,4S595.42,98.78,592.84,98.78z"/>
<path d="M193.68,29.08c-0.67-0.85-2.13-0.7-2.83,0c-0.84,0.84-0.67,1.98,0,2.83c2.01,2.55,0.9,7,0.54,9.9
	c-0.52,4.23-1.15,8.45-1.89,12.65c-1.45,8.28-3.31,16.49-5.56,24.59c-1.3,4.66-2.73,9.29-4.28,13.87c-0.83,2.44,3.03,3.49,3.86,1.06
	c5.76-17.01,9.73-34.58,11.9-52.41C195.95,37.24,196.56,32.75,193.68,29.08z"/>
<path d="M210.06,28.51c-0.97-0.11-2.23,0.66-2.22,1.75c0.03,5.23-1.26,10.4-3.92,14.89c-0.55,0.93-0.51,2.11,0.42,2.8
	c0.8,0.59,2.24,0.51,2.8-0.42c3.01-5.08,4.71-10.86,4.68-16.79C211.8,29.66,211.22,28.65,210.06,28.51z"/>
</svg>
