<svg id="my-name-is" xmlns="http://www.w3.org/2000/svg" viewBox="0 0 1237.23 149.68"><path d="M24.7,1.5c-.62,1.44-1.02,3.36-1.98,7.45-.96,4.1-1.57,6.87-2.82,13.02-1.24,6.15-2.09,10.33-3.41,17.74-1.33,7.42-1.94,11.64-3.22,19.33s-1.98,11.85-3.17,19.12-1.78,11.12-2.78,17.24c-1,6.11-1.56,9.06-2.22,13.33-.67,4.27-.93,5.71-1.11,8.01-.18,2.31,.08,2.77,.21,3.52,.14,.74,.36,.18,.47,.21,.1,.04-.01,0,.06-.03,.07-.03,.06,.57,.29-.12,.24-.7,.56-1.09,.9-3.36,.33-2.27,.25-3.73,.79-8,.53-4.27,.98-7.24,1.88-13.37,.91-6.12,1.47-9.98,2.64-17.25,1.16-7.27,1.86-11.43,3.17-19.11s1.96-11.9,3.36-19.29c1.39-7.39,2.3-11.53,3.63-17.66,1.32-6.12,2.12-8.84,3.01-12.95,.88-4.11,1.37-6.01,1.43-7.58,.06-1.56-.51-1.69-1.13-.25" style="stroke:#000;"/><path d="M50.1,11.72c-.09,1.73,.35,4.12,.73,8.53,.37,4.41,.72,7.38,1.16,13.52,.45,6.15,.78,10.36,1.06,17.22,.28,6.87,.35,10.6,.35,17.13-.01,6.52-.1,9.81-.38,15.5-.28,5.7-.56,8.63-1,12.98s-.89,6.06-1.21,8.77c-.33,2.7-.47,3.77-.4,4.75,.07,.98,.31,1.05,.76,.15,.44-.89,.97-1.92,1.48-4.62,.5-2.71,.7-4.51,1.06-8.9,.35-4.39,.51-7.34,.71-13.07,.2-5.73,.29-9.01,.29-15.56,0-6.55-.03-10.29-.27-17.18-.23-6.89-.52-11.1-.9-17.27-.39-6.17-.6-9.16-1.05-13.58-.44-4.41-.71-6.83-1.19-8.51-.48-1.67-1.1-1.6-1.2,.14" style="stroke:#000;"/><path d="M1.17,74.48c.88,.33,1.87,.6,4.37,.53,2.5-.06,4.2-.43,8.12-.87,3.93-.44,6.59-.74,11.49-1.33,4.91-.59,7.8-1,13.03-1.61,5.23-.61,8.16-.97,13.1-1.45,4.95-.48,7.44-.78,11.62-.97,4.18-.19,6.15-.23,9.29,.01,3.13,.24,4.41,.38,6.39,1.18,1.99,.81,2.5,1.31,3.53,2.84,1.03,1.53,1.17,2.59,1.64,4.8,.47,2.22,.51,3.62,.7,6.27,.19,2.64-.03,4.44,.23,6.97,.27,2.52,.55,4.14,1.11,5.65,.55,1.52,1.22,1.6,1.67,1.94,.45,.33,.51,.18,.58-.28s-.22-.53-.22-2.03,.26-2.96,.23-5.48c-.02-2.51-.02-4.33-.34-7.08-.33-2.75-.52-4.25-1.28-6.67-.77-2.41-1.14-3.61-2.54-5.4-1.4-1.78-2.17-2.55-4.48-3.53-2.31-.97-3.75-1.14-7.07-1.35-3.33-.21-5.3,.02-9.54,.31-4.25,.29-6.72,.61-11.69,1.12-4.96,.51-7.89,.86-13.12,1.42-5.24,.55-8.13,.9-13.05,1.35-4.91,.45-7.59,.57-11.51,.9-3.93,.34-5.63,.44-8.09,.77-2.46,.33-3.38,.49-4.22,.88-.83,.4-.84,.78,.05,1.11" style="stroke:#000;"/><path d="M98.09,27.77c-.01-.27-.09-.51-.24-.74-.13-.23-.3-.42-.52-.56-.19-.18-.42-.3-.68-.36l-.53-.07c-.36,0-.7,.09-1.01,.27l-.4,.31c-.25,.25-.42,.54-.51,.88-.15,.48-.31,.96-.46,1.43-.08,.27-.1,.53-.04,.8,.01,.27,.09,.51,.24,.74,.13,.23,.3,.42,.52,.56,.19,.18,.42,.3,.68,.36,.18,.02,.35,.05,.53,.07,.36,0,.7-.09,1.01-.27l.4-.31c.25-.25,.42-.54,.51-.88,.15-.48,.31-.96,.46-1.43,.08-.27,.1-.53,.04-.8Z"/><path d="M133.86,82.01c-.24,.47-.04,.77-.18,2.12-.15,1.36-.24,2.15-.56,4.65-.32,2.5-.29,4.17-1.04,7.85-.75,3.67-1.35,6.26-2.71,10.53-1.37,4.26-2.49,6.93-4.12,10.81-1.62,3.88-2.68,5.78-4,8.57-1.32,2.8-2.22,4.24-2.57,5.42-.36,1.18-.07,1.38,.81,.49,.89-.89,2.08-2.21,3.63-4.94,1.55-2.72,2.46-4.76,4.13-8.7,1.68-3.93,2.75-6.64,4.23-10.95,1.49-4.32,2.21-6.89,3.19-10.63,.97-3.74,1.43-5.43,1.7-8.08,.27-2.64-.06-3.67-.36-5.14-.3-1.48-.72-1.83-1.15-2.23s-.77-.24-1,.23" style="stroke:#000;"/><path d="M210.64,57.13c-.34,.92-.39,2.05-.54,4.51-.15,2.45-.11,4.3-.2,7.76s0,5.9-.23,9.55c-.23,3.65-.73,5.77-.93,8.7-.2,2.94-.29,4.23-.07,5.98s.48,2.39,1.16,2.78c.68,.38,1.14,.2,2.24-.85,1.1-1.05,1.91-2.03,3.27-4.4,1.35-2.38,1.99-4.39,3.53-7.5,1.53-3.11,2.51-5.21,4.15-8.06,1.63-2.85,2.58-4.37,4.01-6.18,1.44-1.8,2.09-2.5,3.15-2.85,1.05-.34,1.55,.01,2.14,1.13,.59,1.11,.57,2.28,.81,4.46,.23,2.18,.11,3.91,.36,6.45,.24,2.53,.32,4.21,.85,6.22s.77,3.07,1.79,3.84c1.02,.76,1.77,.73,3.33-.03,1.56-.75,2.64-1.85,4.46-3.73,1.81-1.89,2.66-3.44,4.63-5.69,1.98-2.26,3.28-3.69,5.24-5.59,1.97-1.91,3.03-2.94,4.58-3.92,1.55-.98,2.11-1.16,3.16-.98,1.05,.17,1.46,.69,2.08,1.86,.61,1.17,.62,2.1,.98,3.96,.36,1.86,.44,3.26,.82,5.32,.38,2.07,.6,3.34,1.07,5.01,.48,1.67,.84,2.72,1.31,3.36,.47,.64,.79,.58,1.05-.16,.27-.75,.28-1.82,.28-3.57-.01-1.75-.01-3.02-.3-5.18-.29-2.15-.51-3.57-1.17-5.59-.66-2.01-.99-3.1-2.14-4.47-1.15-1.38-1.96-2.04-3.62-2.4-1.65-.35-2.61-.25-4.66,.62-2.05,.87-3.35,1.84-5.6,3.73s-3.57,3.44-5.64,5.72c-2.06,2.28-3.13,3.69-4.69,5.69-1.56,1.99-2.27,3.26-3.12,4.29-.85,1.03-.94,1.35-1.12,.86-.18-.5,.21-1.43,.23-3.33,.03-1.9,.09-3.59-.12-6.17-.2-2.58-.27-4.37-.92-6.73-.65-2.36-1.05-3.74-2.33-5.08-1.29-1.33-2.32-1.82-4.09-1.59-1.77,.24-2.92,.92-4.77,2.77-1.85,1.85-2.7,3.58-4.5,6.49-1.79,2.91-2.79,5-4.48,8.06-1.69,3.07-2.8,4.83-3.96,7.28-1.16,2.44-1.45,3.66-1.83,4.96-.37,1.29-.16,1.69-.06,1.54,.1-.16,.28-.7,.56-2.31s.52-2.85,.85-5.76c.32-2.9,.55-5.1,.78-8.79,.22-3.69,.26-6.15,.33-9.65,.08-3.51,.22-5.38,.03-7.86-.19-2.47-.56-3.64-.98-4.53-.43-.9-.82-.86-1.16,.05" style="stroke:#000;"/><path d="M284.75,65.31c-.4,.54-.71,1.17-.88,2.77-.17,1.61-.38,2.9,.02,5.26,.41,2.37,.82,4.08,1.99,6.57s2.01,4,3.88,5.88c1.86,1.88,3.09,2.68,5.45,3.53,2.37,.84,3.74,.95,6.35,.69,2.62-.26,4.09-.69,6.73-2.02,2.64-1.32,4.03-2.37,6.49-4.6,2.46-2.22,3.65-3.89,5.83-6.51,2.17-2.62,3.43-4.19,5.05-6.58,1.62-2.4,2.31-3.78,3.05-5.38,.73-1.59,.68-2.46,.63-2.62-.05-.16-.5,.17-.86,1.83-.37,1.65-.66,3.12-.97,6.44-.31,3.32-.38,5.66-.59,10.15-.21,4.5-.29,7.31-.46,12.34-.18,5.04-.2,7.84-.42,12.83-.22,4.99-.36,7.6-.66,12.11-.31,4.52-.37,6.72-.88,10.46-.5,3.74-.75,5.46-1.63,8.23-.88,2.76-1.44,3.83-2.78,5.59-1.34,1.75-2.14,2.35-3.92,3.18-1.78,.82-3.02,1.02-4.97,.95s-3.03-.63-4.77-1.32c-1.74-.68-2.6-1.32-3.91-2.11-1.31-.78-1.94-1.6-2.62-1.82-.68-.22-1-.03-.77,.72,.23,.74,.68,1.81,1.91,3,1.24,1.19,2.25,2.08,4.28,2.93,2.02,.86,3.47,1.39,5.85,1.36,2.39-.03,3.93-.41,6.08-1.5,2.15-1.1,3.12-1.92,4.69-3.98,1.56-2.06,2.23-3.32,3.14-6.32s.98-4.82,1.39-8.67c.42-3.85,.43-6.04,.69-10.59,.26-4.54,.38-7.15,.61-12.14,.24-4.99,.26-7.81,.55-12.82,.28-5.02,.45-7.8,.88-12.26,.43-4.46,.96-6.71,1.27-10.04,.3-3.34,.48-4.82,.25-6.63-.23-1.82-.63-2.32-1.41-2.43-.79-.12-1.29,.51-2.52,1.86-1.22,1.36-1.96,2.61-3.61,4.91-1.66,2.3-2.64,4.04-4.68,6.6-2.05,2.56-3.25,4.14-5.55,6.19-2.31,2.04-3.64,2.83-5.98,4.03-2.34,1.2-3.55,1.66-5.72,1.96-2.17,.3-3.28,.25-5.14-.46-1.87-.71-2.79-1.4-4.19-3.07-1.41-1.68-1.92-3.08-2.84-5.31-.92-2.24-1.23-3.76-1.75-5.87-.52-2.1-.56-3.2-.85-4.65-.29-1.46-.27-2.08-.61-2.62-.35-.53-.73-.6-1.12-.05" style="stroke:#000;"/><path d="M437.38,53.66c-.23,.67-.07,1.34-.04,3.11,.04,1.77,.02,3.04,.22,5.73,.19,2.68,.58,4.54,.75,7.68,.18,3.14,.13,5.06,.13,8.03s-.21,4.58-.12,6.78c.1,2.2,.12,3.11,.6,4.22,.48,1.12,.82,1.4,1.81,1.35,.98-.04,1.68-.35,3.11-1.57,1.44-1.22,2.3-2.36,4.06-4.51,1.77-2.16,2.62-3.9,4.76-6.25,2.13-2.35,3.55-3.68,5.92-5.53,2.36-1.84,3.7-2.73,5.9-3.7,2.19-.98,3.25-1.28,5.08-1.19,1.83,.09,2.6,.5,4.06,1.63,1.45,1.13,2.04,2.08,3.2,4.01,1.17,1.93,1.69,3.25,2.63,5.63,.93,2.39,1.25,3.99,2.04,6.28,.8,2.3,1.3,3.54,1.92,5.19,.62,1.66,.75,2.14,1.18,3.08,.43,.93,.64,1.24,.96,1.62,.32,.38,.45,.26,.64,.28s.21-.05,.3-.19c.09-.14,.14-.03,.15-.49s.05-.78-.08-1.79c-.14-1.02-.19-1.54-.6-3.28-.4-1.73-.73-3-1.43-5.39-.71-2.38-1.04-4.01-2.09-6.52-1.06-2.51-1.7-3.94-3.18-6.03-1.48-2.08-2.31-3.13-4.22-4.4-1.91-1.27-3.01-1.77-5.33-1.95-2.31-.19-3.69,.03-6.26,1.02-2.57,.99-3.99,2.01-6.59,3.93-2.6,1.92-4.04,3.32-6.42,5.65-2.39,2.33-3.73,3.81-5.48,6.01s-2.38,3.51-3.29,5c-.92,1.48-1.06,2.05-1.3,2.43-.23,.37-.04,.32,.11-.58,.14-.89,.41-1.75,.62-3.89,.21-2.14,.35-3.81,.43-6.81,.07-3.01,.06-4.99-.04-8.21-.09-3.21-.13-5.14-.45-7.88-.32-2.73-.63-4.04-1.15-5.79-.51-1.75-.92-2.42-1.42-2.96-.51-.54-.87-.42-1.09,.25" style="stroke:#000;"/><path d="M524.91,73.21c-.7,.04-1.5,.29-2.79,1.14-1.29,.84-2.02,1.42-3.67,3.09-1.65,1.67-2.9,2.92-4.58,5.25-1.69,2.33-2.61,3.89-3.85,6.4-1.24,2.52-1.89,4.02-2.36,6.18-.47,2.17-.56,3.26,0,4.65,.56,1.4,1.26,1.99,2.81,2.32,1.54,.33,2.75,.26,4.91-.68,2.17-.94,3.56-1.97,5.91-4.04,2.35-2.06,3.65-3.64,5.85-6.26,2.19-2.62,3.38-4.17,5.14-6.84,1.75-2.66,2.61-4.22,3.62-6.49,1.01-2.28,1.25-3.53,1.42-4.88,.17-1.34-.15-1.82-.55-1.86-.41-.04-.99,.38-1.49,1.66-.51,1.28-.92,2.44-1.05,4.72-.12,2.27-.05,3.98,.41,6.66,.47,2.67,1,4.34,1.92,6.71,.92,2.37,1.63,3.53,2.7,5.15s1.72,2.19,2.65,2.95,1.5,.8,1.98,.86c.49,.05,.57-.19,.45-.6-.13-.4-.55-.53-1.08-1.44-.54-.91-.89-1.5-1.61-3.1-.73-1.59-1.36-2.66-2.02-4.88-.66-2.22-.97-3.76-1.3-6.23-.33-2.46-.23-3.98-.36-6.09-.14-2.11-.1-3.17-.32-4.45-.22-1.27-.36-1.8-.79-1.94-.44-.15-.67,.12-1.38,1.22-.7,1.11-1.04,2.19-2.16,4.29-1.11,2.09-1.73,3.65-3.4,6.19-1.67,2.54-2.8,4.08-4.96,6.51-2.16,2.44-3.65,3.75-5.84,5.65-2.2,1.9-3.43,2.8-5.13,3.87-1.69,1.07-2.43,1.37-3.36,1.49-.94,.11-1.24-.07-1.31-.93-.08-.86,.22-1.63,.95-3.38,.74-1.76,1.4-3.15,2.71-5.41,1.3-2.25,2.22-3.66,3.82-5.86,1.6-2.19,2.77-3.39,4.16-5.11,1.4-1.72,1.89-2.38,2.81-3.48s1.58-1.43,1.81-2.04c.22-.6,.02-1-.67-.97" style="stroke:#000;"/><path d="M564.61,70.88c-.23,.46-.16,.84-.13,1.95,.03,1.11,.07,1.88,.29,3.61,.22,1.72,.42,3.07,.83,5.02,.4,1.94,.66,3.09,1.2,4.71,.54,1.61,.75,2.4,1.48,3.39,.74,.98,1.16,1.4,2.2,1.55,1.03,.15,1.65-.07,2.98-.82s1.99-1.51,3.68-2.94c1.68-1.42,2.72-2.4,4.73-4.17,2.01-1.77,3.3-2.98,5.31-4.67,2-1.69,3.12-2.72,4.7-3.78s2.29-1.41,3.2-1.52c.91-.12,1.13,.06,1.33,.92,.21,.87,.01,1.66-.3,3.39-.3,1.73-.9,3.09-1.22,5.25-.31,2.16-.67,3.71-.34,5.54,.32,1.83,.77,2.86,1.95,3.6,1.18,.73,2,.65,3.96,.08s3.31-1.36,5.84-2.94c2.53-1.58,4.06-3.06,6.81-4.95,2.75-1.9,4.3-3.02,6.93-4.52,2.62-1.49,4.03-2.21,6.17-2.96,2.14-.74,3.09-1.01,4.53-.75,1.44,.27,1.81,.82,2.67,2.08,.85,1.26,1.07,2.32,1.6,4.22,.53,1.9,.56,3.18,1.04,5.29,.48,2.1,.6,3.38,1.38,5.25,.77,1.87,1.22,2.9,2.51,4.09,1.3,1.19,2.14,1.65,3.97,1.85,1.82,.2,2.93-.01,5.16-.85,2.23-.83,3.5-1.52,5.99-3.32s3.95-3.11,6.47-5.67c2.52-2.56,4.02-4.31,6.13-7.11,2.1-2.8,3.22-4.4,4.41-6.9,1.18-2.51,1.49-3.81,1.51-5.64,.02-1.84-.32-2.7-1.4-3.53-1.08-.82-2.23-1.01-4.02-.59-1.78,.42-3.18,1.03-4.88,2.69-1.71,1.66-2.63,3.08-3.64,5.6-1.01,2.52-1.53,4.1-1.41,7,.11,2.9,.48,4.82,1.99,7.49,1.5,2.68,2.42,3.99,5.53,5.89,3.11,1.91,5.92,2.59,10.04,3.64,4.11,1.05,6.84,1.35,10.52,1.61,3.68,.25,6.3-.02,7.88-.31,1.58-.3,1.57-.79,.03-1.18-1.53-.38-4.11-.26-7.68-.74-3.57-.48-6.27-.63-10.17-1.64-3.91-1.02-6.6-1.72-9.36-3.43-2.76-1.7-3.26-2.83-4.43-5.11-1.16-2.28-1.38-3.88-1.38-6.28s.51-3.66,1.4-5.71c.88-2.06,1.75-3.12,3.03-4.55,1.28-1.44,2.24-2,3.38-2.64,1.14-.64,1.82-.87,2.34-.56,.51,.31,.6,.77,.24,2.11-.36,1.34-.82,2.37-2.04,4.6-1.22,2.23-2.05,3.9-4.04,6.57-1.99,2.66-3.46,4.4-5.91,6.77-2.45,2.37-4.03,3.43-6.36,5.08-2.33,1.66-3.46,2.31-5.3,3.19-1.84,.88-2.62,1.21-3.89,1.22-1.28,.01-1.69-.24-2.48-1.16-.78-.92-.95-1.75-1.43-3.44-.48-1.69-.49-2.89-.95-5-.46-2.1-.55-3.47-1.34-5.52-.79-2.06-1.28-3.26-2.61-4.74-1.33-1.48-2.1-2.19-4.06-2.67-1.95-.47-3.22-.36-5.72,.29-2.51,.65-3.99,1.49-6.8,2.98-2.8,1.49-4.38,2.67-7.22,4.49-2.85,1.82-4.61,2.98-7.01,4.59-2.39,1.62-3.55,2.6-4.98,3.5-1.43,.9-1.75,1.28-2.17,1.01-.42-.28-.19-.95,.08-2.41,.28-1.46,.91-2.78,1.29-4.89,.38-2.12,.71-3.68,.61-5.69-.11-2.02-.32-3.12-1.14-4.38-.83-1.26-1.46-1.71-2.98-1.92-1.51-.2-2.58,.01-4.59,.9-2.01,.89-3.26,1.93-5.47,3.56s-3.53,2.81-5.59,4.6c-2.07,1.78-3.2,2.76-4.74,4.31-1.54,1.55-2.12,2.45-2.97,3.43-.84,.98-.92,1.39-1.25,1.48-.33,.09-.24-.17-.38-1.01-.14-.83-.13-1.59-.3-3.17-.16-1.57-.23-2.75-.54-4.71-.3-1.95-.49-3.34-.96-5.07-.48-1.72-.87-2.5-1.41-3.54-.54-1.03-.83-1.36-1.29-1.62-.46-.26-.8-.12-1.04,.33" style="stroke:#000;"/><path d="M796.52,65.68c-.34,.64-.38,1.4-.56,3.13-.19,1.73-.24,2.95-.36,5.5-.12,2.55-.09,4.33-.24,7.26-.14,2.93-.33,4.64-.48,7.37-.15,2.73-.24,4.11-.25,6.27-.01,2.16,.01,3.14,.21,4.53,.2,1.39,.49,1.95,.81,2.41,.31,.47,.56,.41,.78-.08,.22-.48,.13-1,.32-2.34,.19-1.34,.38-2.24,.63-4.35,.26-2.11,.38-3.47,.66-6.19,.27-2.73,.5-4.45,.71-7.42,.21-2.96,.37-4.8,.34-7.4-.04-2.61-.24-3.89-.52-5.64-.29-1.75-.5-2.5-.91-3.12-.41-.61-.8-.57-1.14,.07" style="stroke:#000;"/><path d="M801.41,34.76c-.18-.2-.4-.33-.64-.41-.24-.13-.5-.18-.77-.17-.52,.02-1.05,.19-1.41,.59-.36,.39-.59,.87-.59,1.41v2.38c0,.51,.22,1.05,.59,1.41,.18,.2,.4,.33,.64,.41,.24,.13,.5,.18,.77,.17,.52-.02,1.05-.19,1.41-.59,.36-.39,.59-.87,.59-1.41v-2.38c0-.51-.22-1.05-.59-1.41Z"/><path d="M861.63,60.16c-.53-.4-1.12-.68-2.73-.89-1.61-.21-2.81-.4-5.32-.17-2.52,.23-4.38,.54-7.24,1.32-2.86,.78-4.62,1.43-7.07,2.58-2.44,1.16-3.71,1.83-5.17,3.21-1.46,1.37-1.95,2.09-2.14,3.66-.19,1.56,.11,2.5,1.2,4.16s2.15,2.47,4.26,4.12c2.1,1.65,3.74,2.45,6.26,4.13,2.51,1.69,4.03,2.67,6.32,4.29,2.28,1.62,3.57,2.39,5.09,3.82,1.53,1.42,2.21,2.06,2.54,3.31,.34,1.26,.06,1.79-.87,2.97-.94,1.18-1.88,1.81-3.81,2.93-1.92,1.12-3.36,1.7-5.81,2.67-2.45,.98-4.14,1.45-6.44,2.2-2.3,.76-4.09,1.02-5.07,1.58-.97,.55-.97,.94,.18,1.19,1.14,.26,3.02,.41,5.54,.07,2.52-.35,4.4-.77,7.06-1.8,2.66-1.03,4.19-1.82,6.25-3.33,2.06-1.51,3.05-2.46,4.04-4.24,1-1.78,1.26-2.79,.92-4.66-.33-1.88-1.05-2.87-2.6-4.71-1.54-1.84-2.84-2.71-5.15-4.51-2.3-1.8-3.87-2.75-6.36-4.48-2.49-1.72-4.01-2.73-6.1-4.15-2.09-1.42-3.2-1.89-4.34-2.96-1.15-1.08-1.49-1.53-1.39-2.4,.09-.88,.5-1.18,1.87-1.99s2.63-1.24,4.97-2.08c2.34-.84,4.03-1.42,6.73-2.1,2.71-.68,4.46-.88,6.8-1.3,2.33-.42,3.4-.52,4.9-.79,1.5-.27,2.07-.22,2.61-.55,.54-.33,.6-.7,.07-1.1" style="stroke:#000;"/><path d="M1005.34,29.27c-.25-.6-.73-1.3-1.91-2.02-1.18-.73-1.91-1.16-3.99-1.61-2.08-.45-3.49-.99-6.41-.64-2.93,.36-4.63,.9-8.2,2.43-3.58,1.52-5.71,2.58-9.66,5.18-3.96,2.61-6.2,4.2-10.12,7.85-3.91,3.64-6.15,5.95-9.45,10.38-3.29,4.43-4.95,7.13-7.04,11.78-2.09,4.66-2.87,7.2-3.41,11.48-.53,4.28-.37,6.53,.74,9.92,1.1,3.39,2.29,5.02,4.79,7.02,2.49,1.99,4.26,2.55,7.67,2.96,3.41,.41,5.42,.18,9.36-.92,3.95-1.09,6.24-2.06,10.37-4.55,4.14-2.5,6.33-4.28,10.31-7.93,3.97-3.66,6.13-5.95,9.55-10.35,3.43-4.39,5.23-7.08,7.58-11.63,2.36-4.55,3.15-7.08,4.19-11.12,1.04-4.04,1.17-5.93,1.02-9.09-.15-3.15-.66-4.53-1.77-6.68-1.11-2.16-2.21-3-3.77-4.11-1.55-1.11-2.7-1.19-4.02-1.46-1.32-.26-2.03-.07-2.58,.13-.55,.21-.55,.54-.15,.9,.4,.36,1.06,.44,2.14,.91,1.08,.47,1.96,.51,3.24,1.44,1.28,.93,2.22,1.41,3.16,3.21,.95,1.8,1.37,2.92,1.56,5.78,.19,2.87,.28,4.67-.62,8.53-.89,3.87-1.62,6.37-3.86,10.81-2.25,4.44-4.01,7.1-7.37,11.4-3.36,4.3-5.51,6.57-9.42,10.1-3.91,3.53-6.11,5.23-10.13,7.57-4.02,2.34-6.26,3.17-9.97,4.14-3.7,.97-5.53,1.05-8.56,.7-3.02-.35-4.41-.79-6.57-2.47-2.17-1.68-3.23-2.92-4.26-5.92-1.02-3-1.31-5.06-.86-9.08,.45-4.02,1.14-6.52,3.14-11.02,1.99-4.5,3.6-7.17,6.83-11.49,3.23-4.31,5.45-6.58,9.32-10.09,3.86-3.51,6.11-5.04,10.01-7.45,3.9-2.4,6.06-3.36,9.49-4.58,3.42-1.21,5-1.29,7.64-1.49,2.63-.21,3.72,.22,5.54,.48,1.81,.26,2.38,.5,3.53,.82,1.16,.32,1.66,.82,2.24,.78,.59-.05,.92-.4,.68-1" style="stroke:#000;"/><path d="M999.78,11.31c-.06-.26-.18-.49-.36-.68-.14-.22-.33-.39-.56-.52l-.48-.2c-.35-.1-.71-.1-1.06,0l-.48,.2c-.3,.18-.54,.42-.72,.72-.32,.64-.64,1.27-.95,1.91-.15,.23-.23,.48-.24,.74-.06,.27-.05,.53,.04,.8,.06,.26,.18,.49,.36,.68,.14,.22,.33,.39,.56,.52l.48,.2c.35,.1,.71,.1,1.06,0l.48-.2c.3-.18,.54-.42,.72-.72,.32-.64,.64-1.27,.95-1.91,.15-.23,.23-.48,.24-.74,.06-.27,.05-.53-.04-.8Z"/><path d="M1012.24,14.21c-.06-.26-.18-.49-.36-.68-.14-.22-.33-.39-.56-.52l-.48-.2c-.35-.1-.71-.1-1.06,0l-.48,.2c-.3,.18-.54,.42-.72,.72-.48,.64-.95,1.27-1.43,1.91-.15,.23-.23,.48-.24,.74-.06,.27-.05,.53,.04,.8,.06,.26,.18,.49,.36,.68,.14,.22,.33,.39,.56,.52l.48,.2c.35,.1,.71,.1,1.06,0l.48-.2c.3-.18,.54-.42,.72-.72,.48-.64,.95-1.27,1.43-1.91,.15-.23,.23-.48,.24-.74,.06-.27,.05-.53-.04-.8Z"/><path d="M977.82,94.69c2.67,.69,4.46,.77,7.64,.39,3.17-.38,4.95-1.01,8.24-2.29,3.28-1.27,5.04-2.21,8.19-4.1,3.14-1.88,4.77-3.12,7.52-5.32,2.76-2.2,4.17-3.48,6.26-5.66,2.09-2.18,2.95-3.42,4.18-5.24,1.22-1.82,1.58-2.7,1.93-3.86,.34-1.16,.12-1.79-.22-1.96-.34-.16-.97,.21-1.48,1.12-.51,.91-.91,1.83-1.07,3.44-.17,1.62-.17,2.81,.24,4.63,.42,1.82,.83,2.94,1.84,4.47,1.02,1.54,1.62,2.23,3.24,3.2,1.62,.97,2.67,1.31,4.87,1.65,2.2,.33,3.46,.32,6.15,.02,2.7-.3,4.31-.65,7.33-1.53,3.02-.88,4.79-1.53,7.77-2.86,2.98-1.32,4.47-2.23,7.13-3.76,2.66-1.53,4.02-2.42,6.17-3.9,2.15-1.48,3.13-2.27,4.58-3.49,1.44-1.22,1.95-1.76,2.65-2.61,.69-.86,.79-1.21,.82-1.67,.03-.46-.3-.69-.67-.65-.37,.03-.93,.22-1.17,.82-.25,.6-.34,1.26-.06,2.18,.29,.93,.8,1.33,1.49,2.45,.7,1.11,1.15,1.69,1.98,3.11,.83,1.43,1.35,2.32,2.18,4,.84,1.68,1.37,2.62,2,4.39,.62,1.76,.98,2.73,1.12,4.43,.14,1.7,.02,2.5-.43,4.07-.44,1.58-.8,2.43-1.81,3.8-1,1.37-1.71,1.94-3.21,3.06-1.51,1.12-2.49,1.78-4.32,2.54-1.83,.76-2.95,.9-4.83,1.25-1.89,.35-3.11,.34-4.59,.5-1.49,.15-1.96,.25-2.83,.28-.87,.03-1.17-.25-1.53-.14-.37,.1-.55,.3-.31,.68,.24,.38,.55,.82,1.49,1.21,.94,.39,1.56,.65,3.22,.75,1.66,.11,2.96,.13,5.08-.21,2.11-.35,3.41-.62,5.49-1.52,2.08-.9,3.2-1.64,4.92-3s2.51-2.11,3.68-3.8c1.17-1.69,1.61-2.72,2.17-4.64,.56-1.93,.7-2.95,.63-4.99-.08-2.04-.4-3.2-.99-5.22s-1.13-3.03-1.96-4.86c-.83-1.83-1.34-2.77-2.18-4.28-.85-1.51-1.37-2.22-2.06-3.27-.69-1.05-.99-1.41-1.39-1.97-.39-.57-.34-.58-.61-.86-.27-.29-.46-.4-.74-.56-.28-.15-.25-.33-.65-.2-.4,.12-.51,.25-1.34,.83-.83,.58-1.32,1.03-2.81,2.08-1.48,1.04-2.49,1.74-4.6,3.14-2.12,1.4-3.42,2.36-5.98,3.86-2.57,1.5-3.98,2.4-6.84,3.63-2.86,1.23-4.59,1.76-7.46,2.52-2.88,.76-4.43,.96-6.9,1.27s-3.57,.43-5.44,.28c-1.87-.16-2.7-.36-3.91-1.04-1.2-.68-1.54-1.16-2.12-2.37-.57-1.21-.58-2.16-.75-3.68s-.02-2.49-.1-3.92c-.08-1.42-.08-2.25-.32-3.21-.23-.95-.42-1.48-.87-1.56-.45-.08-.62,.3-1.37,1.18-.74,.89-1.06,1.61-2.34,3.24-1.28,1.62-2.09,2.77-4.07,4.87-1.98,2.1-3.21,3.48-5.82,5.63-2.61,2.16-4.21,3.37-7.22,5.16-3.02,1.78-4.75,2.64-7.86,3.77-3.1,1.13-4.79,1.54-7.66,1.87l-7.31,2.43Z" style="stroke:#000;"/><path d="M1133.25,73.67c-.34-.6-.88-1.27-2.27-1.94-1.39-.68-2.39-1.15-4.68-1.45-2.28-.3-3.94-.54-6.76-.06-2.81,.47-4.44,1.1-7.32,2.44s-4.54,2.24-7.08,4.26c-2.54,2.01-3.8,3.42-5.61,5.81-1.82,2.39-2.73,3.84-3.48,6.13-.74,2.29-.89,3.59-.27,5.32,.63,1.74,1.53,2.62,3.38,3.36,1.84,.74,3.23,.79,5.83,.34,2.6-.44,4.15-1.18,7.17-2.58,3.02-1.39,4.88-2.49,7.92-4.39,3.03-1.9,4.65-3.19,7.25-5.12,2.6-1.93,3.94-3.1,5.75-4.54,1.82-1.44,2.61-2.17,3.34-2.67,.73-.5,.49-.51,.31,.18-.19,.69-.81,1.49-1.25,3.29-.44,1.8-.79,3.38-.94,5.7-.14,2.33-.14,3.85,.23,5.95,.38,2.09,.66,3.12,1.65,4.55,.99,1.42,1.8,2.11,3.32,2.59,1.51,.48,2.4,.43,4.24-.21,1.84-.64,2.89-1.37,4.98-2.98,2.09-1.62,3.14-2.83,5.47-5.09,2.32-2.26,3.76-3.85,6.17-6.22,2.4-2.37,3.84-3.85,5.84-5.65,2.01-1.81,2.89-2.6,4.18-3.38,1.28-.78,1.69-.83,2.26-.55,.56,.29,.48,.73,.57,1.97,.09,1.23-.26,2.41-.13,4.19,.13,1.78,.28,2.99,.79,4.72,.5,1.73,.82,2.57,1.75,3.93,.92,1.36,1.48,2.05,2.85,2.86,1.38,.81,2.21,1.07,4,1.2,1.8,.13,2.81-.07,4.98-.54,2.17-.48,3.44-.87,5.86-1.84,2.42-.97,3.81-1.82,6.24-3.02,2.43-1.2,3.76-2.09,5.92-2.98,2.16-.9,3.22-1.31,4.88-1.51,1.67-.19,2.33-.1,3.46,.52s1.43,1.32,2.18,2.59c.74,1.26,.91,2.22,1.55,3.74,.64,1.51,1.02,2.54,1.63,3.83,.6,1.3,.86,1.76,1.39,2.66,.52,.9,.79,1.55,1.22,1.86,.43,.32,.78,.21,.95-.3,.16-.52,.04-1.22-.12-2.28-.16-1.05-.25-1.59-.69-3-.44-1.41-.77-2.44-1.52-4.04-.76-1.61-1.13-2.57-2.24-3.98-1.11-1.41-1.71-2.25-3.3-3.06-1.59-.82-2.57-1.05-4.66-1.02-2.08,.03-3.35,.37-5.77,1.16-2.42,.8-3.83,1.68-6.31,2.83-2.48,1.15-3.78,1.98-6.07,2.95-2.29,.96-3.46,1.33-5.36,1.88-1.9,.55-2.75,.8-4.15,.86-1.4,.05-1.92-.04-2.85-.58-.94-.54-1.3-1.03-1.85-2.12-.54-1.09-.6-1.79-.86-3.33-.27-1.55-.17-2.63-.46-4.39-.28-1.77-.32-3.03-.98-4.45-.65-1.42-1.08-2.09-2.29-2.63-1.2-.55-1.94-.67-3.74-.08-1.8,.59-3.04,1.23-5.27,3.02-2.22,1.8-3.45,3.54-5.88,5.94-2.43,2.39-3.93,3.88-6.26,6.04-2.33,2.16-3.52,3.19-5.4,4.77-1.89,1.58-2.68,2.36-4.01,3.11-1.32,.76-1.72,.89-2.62,.65-.9-.24-1.38-.73-1.87-1.83-.49-1.09-.58-1.84-.57-3.65s.46-3.18,.62-5.39c.16-2.21,.25-3.75,.17-5.66-.07-1.91-.02-2.83-.55-3.87-.54-1.05-.79-1.45-2.11-1.35-1.33,.11-2.44,.57-4.5,1.86-2.06,1.29-3.24,2.68-5.81,4.6-2.56,1.93-4.07,3.23-7.02,5.03-2.96,1.8-4.88,2.7-7.74,3.97-2.85,1.27-4.33,1.8-6.56,2.37-2.22,.58-3.2,.76-4.55,.49-1.35-.27-1.92-.72-2.19-1.85-.28-1.13-.02-2,.83-3.82,.84-1.81,1.71-3.12,3.39-5.26,1.69-2.14,2.71-3.59,5.03-5.42,2.31-1.83,3.91-2.62,6.55-3.74,2.64-1.11,4.13-1.47,6.64-1.83s3.89-.1,5.91,.02c2.03,.12,2.85,.35,4.2,.58,1.34,.23,1.91,.66,2.53,.57,.61-.09,.89-.44,.54-1.04" style="stroke:#000;"/><path d="M1235.3,98.78c-2.57,0-2.58,4,0,4s2.58-4,0-4Z"/></svg>