<?xml version="1.0" encoding="utf-8"?>
<!-- Generator: Adobe Illustrator 26.3.1, SVG Export Plug-In . SVG Version: 6.00 Build 0)  -->
<svg version="1.2" baseProfile="tiny" id="my-name-is"
	 xmlns="http://www.w3.org/2000/svg" xmlns:xlink="http://www.w3.org/1999/xlink" x="0px" y="0px" viewBox="0 0 1305.97 154.68"
	 overflow="visible" xml:space="preserve">
<path stroke="#000000" d="M27.2,4c-0.62,1.44-1.02,3.36-1.98,7.45c-0.96,4.1-1.57,6.87-2.82,13.02c-1.24,6.15-2.09,10.33-3.41,17.74
	c-1.33,7.42-1.94,11.64-3.22,19.33s-1.98,11.85-3.17,19.12S10.82,91.78,9.82,97.9c-1,6.11-1.56,9.06-2.22,13.33
	c-0.67,4.27-0.93,5.71-1.11,8.01c-0.18,2.31,0.08,2.77,0.21,3.52c0.14,0.74,0.36,0.18,0.47,0.21c0.1,0.04-0.01,0,0.06-0.03
	c0.07-0.03,0.06,0.57,0.29-0.12c0.24-0.7,0.56-1.09,0.9-3.36c0.33-2.27,0.25-3.73,0.79-8c0.53-4.27,0.98-7.24,1.88-13.37
	c0.91-6.12,1.47-9.98,2.64-17.25c1.16-7.27,1.86-11.43,3.17-19.11s1.96-11.9,3.36-19.29c1.39-7.39,2.3-11.53,3.63-17.66
	c1.32-6.12,2.12-8.84,3.01-12.95c0.88-4.11,1.37-6.01,1.43-7.58C28.39,2.69,27.82,2.56,27.2,4"/>
<path stroke="#000000" d="M52.6,14.22c-0.09,1.73,0.35,4.12,0.73,8.53c0.37,4.41,0.72,7.38,1.16,13.52
	c0.45,6.15,0.78,10.36,1.06,17.22c0.28,6.87,0.35,10.6,0.35,17.13c-0.01,6.52-0.1,9.81-0.38,15.5c-0.28,5.7-0.56,8.63-1,12.98
	s-0.89,6.06-1.21,8.77c-0.33,2.7-0.47,3.77-0.4,4.75c0.07,0.98,0.31,1.05,0.76,0.15c0.44-0.89,0.97-1.92,1.48-4.62
	c0.5-2.71,0.7-4.51,1.06-8.9c0.35-4.39,0.51-7.34,0.71-13.07c0.2-5.73,0.29-9.01,0.29-15.56c0.01-6.55-0.03-10.29-0.27-17.18
	c-0.23-6.89-0.52-11.1-0.9-17.27c-0.39-6.17-0.6-9.16-1.05-13.58c-0.44-4.41-0.71-6.83-1.19-8.51C53.32,12.41,52.7,12.48,52.6,14.22
	"/>
<path stroke="#000000" d="M3.67,76.98c0.88,0.33,1.87,0.6,4.37,0.53c2.5-0.06,4.2-0.43,8.12-0.87c3.93-0.44,6.59-0.74,11.49-1.33
	c4.91-0.59,7.8-1,13.03-1.61c5.23-0.61,8.16-0.97,13.1-1.45c4.95-0.48,7.44-0.78,11.62-0.97c4.18-0.19,6.15-0.23,9.29,0.01
	c3.13,0.24,4.41,0.38,6.39,1.18c1.99,0.81,2.5,1.31,3.53,2.84c1.03,1.53,1.17,2.59,1.64,4.8c0.47,2.22,0.51,3.62,0.7,6.27
	c0.19,2.64-0.03,4.44,0.23,6.97c0.27,2.52,0.55,4.14,1.11,5.65c0.55,1.52,1.22,1.6,1.67,1.94c0.45,0.33,0.51,0.18,0.58-0.28
	s-0.22-0.53-0.22-2.03s0.26-2.96,0.23-5.48c-0.02-2.51-0.02-4.33-0.34-7.08c-0.33-2.75-0.52-4.25-1.28-6.67
	c-0.77-2.41-1.14-3.61-2.54-5.4c-1.4-1.78-2.17-2.55-4.48-3.53c-2.31-0.97-3.75-1.14-7.07-1.35c-3.33-0.21-5.3,0.02-9.54,0.31
	c-4.25,0.29-6.72,0.61-11.69,1.12c-4.96,0.51-7.89,0.86-13.12,1.42c-5.24,0.55-8.13,0.9-13.05,1.35c-4.91,0.45-7.59,0.57-11.51,0.9
	c-3.93,0.34-5.63,0.44-8.09,0.77c-2.46,0.33-3.38,0.49-4.22,0.88C2.79,76.27,2.78,76.65,3.67,76.98"/>
<path stroke="#000000" d="M101.03,31.74c0.01-0.54-0.21-1.09-0.61-1.37c-0.4-0.29-0.83-0.25-1.39-0.06
	c-0.56,0.19-1.09,0.49-1.41,0.99c-0.32,0.51-0.35,1.18-0.18,1.53c0.16,0.34,0.62,0.36,1,0.21c0.37-0.16,0.64-0.7,0.85-0.99
	c0.22-0.29,0.31-0.41,0.23-0.46c-0.07-0.05-0.38-0.04-0.6,0.19c-0.21,0.23-0.51,0.61-0.48,0.94s0.24,0.66,0.63,0.72
	c0.4,0.06,0.93-0.08,1.33-0.42C100.79,32.68,101.03,32.27,101.03,31.74"/>
<path stroke="#000000" d="M136.36,84.51c-0.24,0.47-0.04,0.77-0.18,2.12c-0.15,1.36-0.24,2.15-0.56,4.65
	c-0.32,2.5-0.29,4.17-1.04,7.85c-0.75,3.67-1.35,6.26-2.71,10.53c-1.37,4.26-2.49,6.93-4.12,10.81c-1.62,3.88-2.68,5.78-4,8.57
	c-1.32,2.8-2.22,4.24-2.57,5.42c-0.36,1.18-0.07,1.38,0.81,0.49c0.89-0.89,2.08-2.21,3.63-4.94c1.55-2.72,2.46-4.76,4.13-8.7
	c1.68-3.93,2.75-6.64,4.23-10.95c1.49-4.32,2.21-6.89,3.19-10.63c0.97-3.74,1.43-5.43,1.7-8.08c0.27-2.64-0.06-3.67-0.36-5.14
	c-0.3-1.48-0.72-1.83-1.15-2.23S136.59,84.04,136.36,84.51"/>
<path stroke="#000000" d="M213.14,59.63c-0.34,0.92-0.39,2.05-0.54,4.51c-0.15,2.45-0.11,4.3-0.2,7.76s0.01,5.9-0.23,9.55
	c-0.23,3.65-0.73,5.77-0.93,8.7c-0.2,2.94-0.29,4.23-0.07,5.98s0.48,2.39,1.16,2.78c0.68,0.38,1.14,0.2,2.24-0.85
	c1.1-1.05,1.91-2.03,3.27-4.4c1.35-2.38,1.99-4.39,3.53-7.5c1.53-3.11,2.51-5.21,4.15-8.06c1.63-2.85,2.58-4.37,4.01-6.18
	c1.44-1.8,2.09-2.5,3.15-2.85c1.05-0.34,1.55,0.01,2.14,1.13c0.59,1.11,0.57,2.28,0.81,4.46c0.23,2.18,0.11,3.91,0.36,6.45
	c0.24,2.53,0.32,4.21,0.85,6.22s0.77,3.07,1.79,3.84c1.02,0.76,1.77,0.73,3.33-0.03c1.56-0.75,2.64-1.85,4.46-3.73
	c1.81-1.89,2.66-3.44,4.63-5.69c1.98-2.26,3.28-3.69,5.24-5.59c1.97-1.91,3.03-2.94,4.58-3.92c1.55-0.98,2.11-1.16,3.16-0.98
	c1.05,0.17,1.46,0.69,2.08,1.86c0.61,1.17,0.62,2.1,0.98,3.96c0.36,1.86,0.44,3.26,0.82,5.32c0.38,2.07,0.6,3.34,1.07,5.01
	c0.48,1.67,0.84,2.72,1.31,3.36c0.47,0.64,0.79,0.58,1.05-0.16c0.27-0.75,0.28-1.82,0.28-3.57c-0.01-1.75-0.01-3.02-0.3-5.18
	c-0.29-2.15-0.51-3.57-1.17-5.59c-0.66-2.01-0.99-3.1-2.14-4.47c-1.15-1.38-1.96-2.04-3.62-2.4c-1.65-0.35-2.61-0.25-4.66,0.62
	c-2.05,0.87-3.35,1.84-5.6,3.73c-2.25,1.89-3.57,3.44-5.64,5.72c-2.06,2.28-3.13,3.69-4.69,5.69c-1.56,1.99-2.27,3.26-3.12,4.29
	c-0.85,1.03-0.94,1.35-1.12,0.86c-0.18-0.5,0.21-1.43,0.23-3.33c0.03-1.9,0.09-3.59-0.12-6.17c-0.2-2.58-0.27-4.37-0.92-6.73
	c-0.65-2.36-1.05-3.74-2.33-5.08c-1.29-1.33-2.32-1.82-4.09-1.59c-1.77,0.24-2.92,0.92-4.77,2.77c-1.85,1.85-2.7,3.58-4.5,6.49
	c-1.79,2.91-2.79,5-4.48,8.06c-1.69,3.07-2.8,4.83-3.96,7.28c-1.16,2.44-1.45,3.66-1.83,4.96c-0.37,1.29-0.16,1.69-0.06,1.54
	c0.1-0.16,0.28-0.7,0.56-2.31s0.52-2.85,0.85-5.76c0.32-2.9,0.55-5.1,0.78-8.79c0.22-3.69,0.26-6.15,0.33-9.65
	c0.08-3.51,0.22-5.38,0.03-7.86c-0.19-2.47-0.56-3.64-0.98-4.53C213.87,58.68,213.48,58.72,213.14,59.63"/>
<path stroke="#000000" d="M287.25,67.81c-0.4,0.54-0.71,1.17-0.88,2.77c-0.17,1.61-0.38,2.9,0.02,5.26
	c0.41,2.37,0.82,4.08,1.99,6.57s2.01,4,3.88,5.88c1.86,1.88,3.09,2.68,5.45,3.53c2.37,0.84,3.74,0.95,6.35,0.69
	c2.62-0.26,4.09-0.69,6.73-2.02c2.64-1.32,4.03-2.37,6.49-4.6c2.46-2.22,3.65-3.89,5.83-6.51c2.17-2.62,3.43-4.19,5.05-6.58
	c1.62-2.4,2.31-3.78,3.05-5.38c0.73-1.59,0.68-2.46,0.63-2.62c-0.05-0.16-0.5,0.17-0.86,1.83c-0.37,1.65-0.66,3.12-0.97,6.44
	c-0.31,3.32-0.38,5.66-0.59,10.15c-0.21,4.5-0.29,7.31-0.46,12.34c-0.18,5.04-0.2,7.84-0.42,12.83c-0.22,4.99-0.36,7.6-0.66,12.11
	c-0.31,4.52-0.37,6.72-0.88,10.46c-0.5,3.74-0.75,5.46-1.63,8.23c-0.88,2.76-1.44,3.83-2.78,5.59c-1.34,1.75-2.14,2.35-3.92,3.18
	c-1.78,0.82-3.02,1.02-4.97,0.95s-3.03-0.63-4.77-1.32c-1.74-0.68-2.6-1.32-3.91-2.11c-1.31-0.78-1.94-1.6-2.62-1.82
	c-0.68-0.22-1-0.03-0.77,0.72c0.23,0.74,0.68,1.81,1.91,3c1.24,1.19,2.25,2.08,4.28,2.93c2.02,0.86,3.47,1.39,5.85,1.36
	c2.39-0.03,3.93-0.41,6.08-1.5c2.15-1.1,3.12-1.92,4.69-3.98c1.56-2.06,2.23-3.32,3.14-6.32s0.98-4.82,1.39-8.67
	c0.42-3.85,0.43-6.04,0.69-10.59c0.26-4.54,0.38-7.15,0.61-12.14c0.24-4.99,0.26-7.81,0.55-12.82c0.28-5.02,0.45-7.8,0.88-12.26
	c0.43-4.46,0.96-6.71,1.27-10.04c0.3-3.34,0.48-4.82,0.25-6.63c-0.23-1.82-0.63-2.32-1.41-2.43c-0.79-0.12-1.29,0.51-2.52,1.86
	c-1.22,1.36-1.96,2.61-3.61,4.91c-1.66,2.3-2.64,4.04-4.68,6.6c-2.05,2.56-3.25,4.14-5.55,6.19c-2.31,2.04-3.64,2.83-5.98,4.03
	c-2.34,1.2-3.55,1.66-5.72,1.96c-2.17,0.3-3.28,0.25-5.14-0.46c-1.87-0.71-2.79-1.4-4.19-3.07c-1.41-1.68-1.92-3.08-2.84-5.31
	c-0.92-2.24-1.23-3.76-1.75-5.87c-0.52-2.1-0.56-3.2-0.85-4.65c-0.29-1.46-0.27-2.08-0.61-2.62
	C288.02,67.33,287.64,67.26,287.25,67.81"/>
<path stroke="#000000" d="M439.88,56.16c-0.23,0.67-0.07,1.34-0.04,3.11c0.04,1.77,0.02,3.04,0.22,5.73
	c0.19,2.68,0.58,4.54,0.75,7.68c0.18,3.14,0.13,5.06,0.13,8.03c0,2.96-0.21,4.58-0.12,6.78c0.1,2.2,0.12,3.11,0.6,4.22
	c0.48,1.12,0.82,1.4,1.81,1.35c0.98-0.04,1.68-0.35,3.11-1.57c1.44-1.22,2.3-2.36,4.06-4.51c1.77-2.16,2.62-3.9,4.76-6.25
	c2.13-2.35,3.55-3.68,5.92-5.53c2.36-1.84,3.7-2.73,5.9-3.7c2.19-0.98,3.25-1.28,5.08-1.19c1.83,0.09,2.6,0.5,4.06,1.63
	c1.45,1.13,2.04,2.08,3.2,4.01c1.17,1.93,1.69,3.25,2.63,5.63c0.93,2.39,1.25,3.99,2.04,6.28c0.8,2.3,1.3,3.54,1.92,5.19
	c0.62,1.66,0.75,2.14,1.18,3.08c0.43,0.93,0.64,1.24,0.96,1.62c0.32,0.38,0.45,0.26,0.64,0.28s0.21-0.05,0.3-0.19
	c0.09-0.14,0.14-0.03,0.15-0.49s0.05-0.78-0.08-1.79c-0.14-1.02-0.19-1.54-0.6-3.28c-0.4-1.73-0.73-3-1.43-5.39
	c-0.71-2.38-1.04-4.01-2.09-6.52c-1.06-2.51-1.7-3.94-3.18-6.03c-1.48-2.08-2.31-3.13-4.22-4.4c-1.91-1.27-3.01-1.77-5.33-1.95
	c-2.31-0.19-3.69,0.03-6.26,1.02c-2.57,0.99-3.99,2.01-6.59,3.93c-2.6,1.92-4.04,3.32-6.42,5.65c-2.39,2.33-3.73,3.81-5.48,6.01
	s-2.38,3.51-3.29,5c-0.92,1.48-1.06,2.05-1.3,2.43c-0.23,0.37-0.04,0.32,0.11-0.58c0.14-0.89,0.41-1.75,0.62-3.89
	c0.21-2.14,0.35-3.81,0.43-6.81c0.07-3.01,0.06-4.99-0.04-8.21c-0.09-3.21-0.13-5.14-0.45-7.88c-0.32-2.73-0.63-4.04-1.15-5.79
	c-0.51-1.75-0.92-2.42-1.42-2.96C440.46,55.37,440.1,55.49,439.88,56.16"/>
<path stroke="#000000" d="M527.41,75.71c-0.7,0.04-1.5,0.29-2.79,1.14c-1.29,0.84-2.02,1.42-3.67,3.09
	c-1.65,1.67-2.9,2.92-4.58,5.25c-1.69,2.33-2.61,3.89-3.85,6.4c-1.24,2.52-1.89,4.02-2.36,6.18c-0.47,2.17-0.56,3.26,0,4.65
	c0.56,1.4,1.26,1.99,2.81,2.32c1.54,0.33,2.75,0.26,4.91-0.68c2.17-0.94,3.56-1.97,5.91-4.04c2.35-2.06,3.65-3.64,5.85-6.26
	c2.19-2.62,3.38-4.17,5.14-6.84c1.75-2.66,2.61-4.22,3.62-6.49c1.01-2.28,1.25-3.53,1.42-4.88c0.17-1.34-0.15-1.82-0.55-1.86
	c-0.41-0.04-0.99,0.38-1.49,1.66c-0.51,1.28-0.92,2.44-1.05,4.72c-0.12,2.27-0.05,3.98,0.41,6.66c0.47,2.67,1,4.34,1.92,6.71
	c0.92,2.37,1.63,3.53,2.7,5.15s1.72,2.19,2.65,2.95s1.5,0.8,1.98,0.86c0.49,0.05,0.57-0.19,0.45-0.6c-0.13-0.4-0.55-0.53-1.08-1.44
	c-0.54-0.91-0.89-1.5-1.61-3.1c-0.73-1.59-1.36-2.66-2.02-4.88c-0.66-2.22-0.97-3.76-1.3-6.23c-0.33-2.46-0.23-3.98-0.36-6.09
	c-0.14-2.11-0.1-3.17-0.32-4.45c-0.22-1.27-0.36-1.8-0.79-1.94c-0.44-0.15-0.67,0.12-1.38,1.22c-0.7,1.11-1.04,2.19-2.16,4.29
	c-1.11,2.09-1.73,3.65-3.4,6.19c-1.67,2.54-2.8,4.08-4.96,6.51c-2.16,2.44-3.65,3.75-5.84,5.65c-2.2,1.9-3.43,2.8-5.13,3.87
	c-1.69,1.07-2.43,1.37-3.36,1.49c-0.94,0.11-1.24-0.07-1.31-0.93c-0.08-0.86,0.22-1.63,0.95-3.38c0.74-1.76,1.4-3.15,2.71-5.41
	c1.3-2.25,2.22-3.66,3.82-5.86c1.6-2.19,2.77-3.39,4.16-5.11c1.4-1.72,1.89-2.38,2.81-3.48s1.58-1.43,1.81-2.04
	C528.3,76.08,528.1,75.68,527.41,75.71"/>
<path stroke="#000000" d="M567.11,73.38c-0.23,0.46-0.16,0.84-0.13,1.95c0.03,1.11,0.07,1.88,0.29,3.61
	c0.22,1.72,0.42,3.07,0.83,5.02c0.4,1.94,0.66,3.09,1.2,4.71c0.54,1.61,0.75,2.4,1.48,3.39c0.74,0.98,1.16,1.4,2.2,1.55
	c1.03,0.15,1.65-0.07,2.98-0.82s1.99-1.51,3.68-2.94c1.68-1.42,2.72-2.4,4.73-4.17c2.01-1.77,3.3-2.98,5.31-4.67
	c2-1.69,3.12-2.72,4.7-3.78s2.29-1.41,3.2-1.52c0.91-0.12,1.13,0.06,1.33,0.92c0.21,0.87,0.01,1.66-0.3,3.39
	c-0.3,1.73-0.9,3.09-1.22,5.25c-0.31,2.16-0.67,3.71-0.34,5.54c0.32,1.83,0.77,2.86,1.95,3.6c1.18,0.73,2,0.65,3.96,0.08
	s3.31-1.36,5.84-2.94c2.53-1.58,4.06-3.06,6.81-4.95c2.75-1.9,4.3-3.02,6.93-4.52c2.62-1.49,4.03-2.21,6.17-2.96
	c2.14-0.74,3.09-1.01,4.53-0.75c1.44,0.27,1.81,0.82,2.67,2.08c0.85,1.26,1.07,2.32,1.6,4.22c0.53,1.9,0.56,3.18,1.04,5.29
	c0.48,2.1,0.6,3.38,1.38,5.25c0.77,1.87,1.22,2.9,2.51,4.09c1.3,1.19,2.14,1.65,3.97,1.85c1.82,0.2,2.93-0.01,5.16-0.85
	c2.23-0.83,3.5-1.52,5.99-3.32s3.95-3.11,6.47-5.67c2.52-2.56,4.02-4.31,6.13-7.11c2.1-2.8,3.22-4.4,4.41-6.9
	c1.18-2.51,1.49-3.81,1.51-5.64c0.02-1.84-0.32-2.7-1.4-3.53c-1.08-0.82-2.23-1.01-4.02-0.59c-1.78,0.42-3.18,1.03-4.88,2.69
	c-1.71,1.66-2.63,3.08-3.64,5.6c-1.01,2.52-1.53,4.1-1.41,7c0.11,2.9,0.48,4.82,1.99,7.49c1.5,2.68,2.42,3.99,5.53,5.89
	c3.11,1.91,5.92,2.59,10.04,3.64c4.11,1.05,6.84,1.35,10.52,1.61c3.68,0.25,6.3-0.02,7.88-0.31c1.58-0.3,1.57-0.79,0.03-1.18
	c-1.53-0.38-4.11-0.26-7.68-0.74c-3.57-0.48-6.27-0.63-10.17-1.64c-3.91-1.02-6.6-1.72-9.36-3.43c-2.76-1.7-3.26-2.83-4.43-5.11
	c-1.16-2.28-1.38-3.88-1.38-6.28c0-2.4,0.51-3.66,1.4-5.71c0.88-2.06,1.75-3.12,3.03-4.55c1.28-1.44,2.24-2,3.38-2.64
	c1.14-0.64,1.82-0.87,2.34-0.56c0.51,0.31,0.6,0.77,0.24,2.11c-0.36,1.34-0.82,2.37-2.04,4.6c-1.22,2.23-2.05,3.9-4.04,6.57
	c-1.99,2.66-3.46,4.4-5.91,6.77c-2.45,2.37-4.03,3.43-6.36,5.08c-2.33,1.66-3.46,2.31-5.3,3.19c-1.84,0.88-2.62,1.21-3.89,1.22
	c-1.28,0.01-1.69-0.24-2.48-1.16c-0.78-0.92-0.95-1.75-1.43-3.44c-0.48-1.69-0.49-2.89-0.95-5c-0.46-2.1-0.55-3.47-1.34-5.52
	c-0.79-2.06-1.28-3.26-2.61-4.74c-1.33-1.48-2.1-2.19-4.06-2.67c-1.95-0.47-3.22-0.36-5.72,0.29c-2.51,0.65-3.99,1.49-6.8,2.98
	c-2.8,1.49-4.38,2.67-7.22,4.49c-2.85,1.82-4.61,2.98-7.01,4.59c-2.39,1.62-3.55,2.6-4.98,3.5c-1.43,0.9-1.75,1.28-2.17,1.01
	c-0.42-0.28-0.19-0.95,0.08-2.41c0.28-1.46,0.91-2.78,1.29-4.89c0.38-2.12,0.71-3.68,0.61-5.69c-0.11-2.02-0.32-3.12-1.14-4.38
	c-0.83-1.26-1.46-1.71-2.98-1.92c-1.51-0.2-2.58,0.01-4.59,0.9c-2.01,0.89-3.26,1.93-5.47,3.56s-3.53,2.81-5.59,4.6
	c-2.07,1.78-3.2,2.76-4.74,4.31c-1.54,1.55-2.12,2.45-2.97,3.43c-0.84,0.98-0.92,1.39-1.25,1.48c-0.33,0.09-0.24-0.17-0.38-1.01
	c-0.14-0.83-0.13-1.59-0.3-3.17c-0.16-1.57-0.23-2.75-0.54-4.71c-0.3-1.95-0.49-3.34-0.96-5.07c-0.48-1.72-0.87-2.5-1.41-3.54
	c-0.54-1.03-0.83-1.36-1.29-1.62C567.69,72.79,567.35,72.93,567.11,73.38"/>
<path stroke="#000000" d="M799.02,68.18c-0.34,0.64-0.38,1.4-0.56,3.13c-0.19,1.73-0.24,2.95-0.36,5.5
	c-0.12,2.55-0.09,4.33-0.24,7.26c-0.14,2.93-0.33,4.64-0.48,7.37c-0.15,2.73-0.24,4.11-0.25,6.27c-0.01,2.16,0.01,3.14,0.21,4.53
	c0.2,1.39,0.49,1.95,0.81,2.41c0.31,0.47,0.56,0.41,0.78-0.08c0.22-0.48,0.13-1,0.32-2.34c0.19-1.34,0.38-2.24,0.63-4.35
	c0.26-2.11,0.38-3.47,0.66-6.19c0.27-2.73,0.5-4.45,0.71-7.42c0.21-2.96,0.37-4.8,0.34-7.4c-0.04-2.61-0.24-3.89-0.52-5.64
	c-0.29-1.75-0.5-2.5-0.91-3.12C799.75,67.5,799.36,67.54,799.02,68.18"/>
<path stroke="#000000" d="M803.79,39.9c0.02-0.33-0.66-0.43-0.94-0.28c-0.27,0.14-0.54,0.83-0.45,1c0.09,0.17,0.83-0.2,0.9-0.16
	c0.06,0.05-0.46,0.21-0.57,0.37c-0.1,0.16-0.17,0.62,0.04,0.44C802.99,41.08,803.77,40.23,803.79,39.9"/>
<path stroke="#000000" d="M864.13,62.66c-0.53-0.4-1.12-0.68-2.73-0.89c-1.61-0.21-2.81-0.4-5.32-0.17
	c-2.52,0.23-4.38,0.54-7.24,1.32c-2.86,0.78-4.62,1.43-7.07,2.58c-2.44,1.16-3.71,1.83-5.17,3.21c-1.46,1.37-1.95,2.09-2.14,3.66
	c-0.19,1.56,0.11,2.5,1.2,4.16s2.15,2.47,4.26,4.12c2.1,1.65,3.74,2.45,6.26,4.13c2.51,1.69,4.03,2.67,6.32,4.29
	c2.28,1.62,3.57,2.39,5.09,3.82c1.53,1.42,2.21,2.06,2.54,3.31c0.34,1.26,0.06,1.79-0.87,2.97c-0.94,1.18-1.88,1.81-3.81,2.93
	c-1.92,1.12-3.36,1.7-5.81,2.67c-2.45,0.98-4.14,1.45-6.44,2.2c-2.3,0.76-4.09,1.02-5.07,1.58c-0.97,0.55-0.97,0.94,0.18,1.19
	c1.14,0.26,3.02,0.41,5.54,0.07c2.52-0.35,4.4-0.77,7.06-1.8c2.66-1.03,4.19-1.82,6.25-3.33c2.06-1.51,3.05-2.46,4.04-4.24
	c1-1.78,1.26-2.79,0.92-4.66c-0.33-1.88-1.05-2.87-2.6-4.71c-1.54-1.84-2.84-2.71-5.15-4.51c-2.3-1.8-3.87-2.75-6.36-4.48
	c-2.49-1.72-4.01-2.73-6.1-4.15c-2.09-1.42-3.2-1.89-4.34-2.96c-1.15-1.08-1.49-1.53-1.39-2.4c0.09-0.88,0.5-1.18,1.87-1.99
	s2.63-1.24,4.97-2.08c2.34-0.84,4.03-1.42,6.73-2.1c2.71-0.68,4.46-0.88,6.8-1.3c2.33-0.42,3.4-0.52,4.9-0.79
	c1.5-0.27,2.07-0.22,2.61-0.55C864.6,63.43,864.66,63.06,864.13,62.66"/>
<path stroke="#000000" d="M1007.84,31.77c-0.25-0.6-0.73-1.3-1.91-2.02c-1.18-0.73-1.91-1.16-3.99-1.61
	c-2.08-0.45-3.49-0.99-6.41-0.64c-2.93,0.36-4.63,0.9-8.2,2.43c-3.58,1.52-5.71,2.58-9.66,5.18c-3.96,2.61-6.2,4.2-10.12,7.85
	c-3.91,3.64-6.15,5.95-9.45,10.38c-3.29,4.43-4.95,7.13-7.04,11.78c-2.09,4.66-2.87,7.2-3.41,11.48c-0.53,4.28-0.37,6.53,0.74,9.92
	c1.1,3.39,2.29,5.02,4.79,7.02c2.49,1.99,4.26,2.55,7.67,2.96c3.41,0.41,5.42,0.18,9.36-0.92c3.95-1.09,6.24-2.06,10.37-4.55
	c4.14-2.5,6.33-4.28,10.31-7.93c3.97-3.66,6.13-5.95,9.55-10.35c3.43-4.39,5.23-7.08,7.58-11.63c2.36-4.55,3.15-7.08,4.19-11.12
	c1.04-4.04,1.17-5.93,1.02-9.09c-0.15-3.15-0.66-4.53-1.77-6.68c-1.11-2.16-2.21-3-3.77-4.11c-1.55-1.11-2.7-1.19-4.02-1.46
	c-1.32-0.26-2.03-0.07-2.58,0.13c-0.55,0.21-0.55,0.54-0.15,0.9c0.4,0.36,1.06,0.44,2.14,0.91c1.08,0.47,1.96,0.51,3.24,1.44
	c1.28,0.93,2.22,1.41,3.16,3.21c0.95,1.8,1.37,2.92,1.56,5.78c0.19,2.87,0.28,4.67-0.62,8.53c-0.89,3.87-1.62,6.37-3.86,10.81
	c-2.25,4.44-4.01,7.1-7.37,11.4c-3.36,4.3-5.51,6.57-9.42,10.1c-3.91,3.53-6.11,5.23-10.13,7.57c-4.02,2.34-6.26,3.17-9.97,4.14
	c-3.7,0.97-5.53,1.05-8.56,0.7c-3.02-0.35-4.41-0.79-6.57-2.47c-2.17-1.68-3.23-2.92-4.26-5.92c-1.02-3-1.31-5.06-0.86-9.08
	c0.45-4.02,1.14-6.52,3.14-11.02c1.99-4.5,3.6-7.17,6.83-11.49c3.23-4.31,5.45-6.58,9.32-10.09c3.86-3.51,6.11-5.04,10.01-7.45
	c3.9-2.4,6.06-3.36,9.49-4.58c3.42-1.21,5-1.29,7.64-1.49c2.63-0.21,3.72,0.22,5.54,0.48c1.81,0.26,2.38,0.5,3.53,0.82
	c1.16,0.32,1.66,0.82,2.24,0.78C1007.75,32.72,1008.08,32.37,1007.84,31.77"/>
<path stroke="#000000" d="M1016.75,91.07c0.7-0.06,1.38-0.31,2.84-1.19c1.46-0.89,2.48-1.57,4.46-3.22
	c1.99-1.66,3.32-2.93,5.48-5.06c2.15-2.13,3.44-3.38,5.3-5.59c1.87-2.2,2.98-3.45,4.03-5.44c1.06-1.99,1.35-3.01,1.26-4.5
	c-0.09-1.48-0.44-2.37-1.7-2.92c-1.26-0.56-2.52-0.63-4.61,0.15c-2.09,0.79-3.62,1.69-5.85,3.75c-2.23,2.05-3.5,3.67-5.31,6.53
	c-1.81,2.87-2.89,4.76-3.75,7.78c-0.85,3.03-0.99,4.82-0.54,7.36c0.45,2.55,1.1,3.68,2.8,5.37c1.69,1.7,3.02,2.4,5.68,3.1
	c2.67,0.69,4.46,0.77,7.64,0.39c3.17-0.38,4.95-1.01,8.24-2.29c3.28-1.27,5.04-2.21,8.19-4.1c3.14-1.88,4.77-3.12,7.52-5.32
	c2.76-2.2,4.17-3.48,6.26-5.66c2.09-2.18,2.95-3.42,4.18-5.24c1.22-1.82,1.58-2.7,1.93-3.86c0.34-1.16,0.12-1.79-0.22-1.96
	c-0.34-0.16-0.97,0.21-1.48,1.12c-0.51,0.91-0.91,1.83-1.07,3.44c-0.17,1.62-0.17,2.81,0.24,4.63c0.42,1.82,0.83,2.94,1.84,4.47
	c1.02,1.54,1.62,2.23,3.24,3.2c1.62,0.97,2.67,1.31,4.87,1.65c2.2,0.33,3.46,0.32,6.15,0.02c2.7-0.3,4.31-0.65,7.33-1.53
	c3.02-0.88,4.79-1.53,7.77-2.86c2.98-1.32,4.47-2.23,7.13-3.76c2.66-1.53,4.02-2.42,6.17-3.9c2.15-1.48,3.13-2.27,4.58-3.49
	c1.44-1.22,1.95-1.76,2.65-2.61c0.69-0.86,0.79-1.21,0.82-1.67c0.03-0.46-0.3-0.69-0.67-0.65c-0.37,0.03-0.93,0.22-1.17,0.82
	c-0.25,0.6-0.34,1.26-0.06,2.18c0.29,0.93,0.8,1.33,1.49,2.45c0.7,1.11,1.15,1.69,1.98,3.11c0.83,1.43,1.35,2.32,2.18,4
	c0.84,1.68,1.37,2.62,2,4.39c0.62,1.76,0.98,2.73,1.12,4.43c0.14,1.7,0.02,2.5-0.43,4.07c-0.44,1.58-0.8,2.43-1.81,3.8
	c-1,1.37-1.71,1.94-3.21,3.06c-1.51,1.12-2.49,1.78-4.32,2.54c-1.83,0.76-2.95,0.9-4.83,1.25c-1.89,0.35-3.11,0.34-4.59,0.5
	c-1.49,0.15-1.96,0.25-2.83,0.28c-0.87,0.03-1.17-0.25-1.53-0.14c-0.37,0.1-0.55,0.3-0.31,0.68c0.24,0.38,0.55,0.82,1.49,1.21
	c0.94,0.39,1.56,0.65,3.22,0.75c1.66,0.11,2.96,0.13,5.08-0.21c2.11-0.35,3.41-0.62,5.49-1.52c2.08-0.9,3.2-1.64,4.92-3
	s2.51-2.11,3.68-3.8c1.17-1.69,1.61-2.72,2.17-4.64c0.56-1.93,0.7-2.95,0.63-4.99c-0.08-2.04-0.4-3.2-0.99-5.22
	s-1.13-3.03-1.96-4.86c-0.83-1.83-1.34-2.77-2.18-4.28c-0.85-1.51-1.37-2.22-2.06-3.27c-0.69-1.05-0.99-1.41-1.39-1.97
	c-0.39-0.57-0.34-0.58-0.61-0.86c-0.27-0.29-0.46-0.4-0.74-0.56c-0.28-0.15-0.25-0.33-0.65-0.2c-0.4,0.12-0.51,0.25-1.34,0.83
	c-0.83,0.58-1.32,1.03-2.81,2.08c-1.48,1.04-2.49,1.74-4.6,3.14c-2.12,1.4-3.42,2.36-5.98,3.86c-2.57,1.5-3.98,2.4-6.84,3.63
	c-2.86,1.23-4.59,1.76-7.46,2.52c-2.88,0.76-4.43,0.96-6.9,1.27s-3.57,0.43-5.44,0.28c-1.87-0.16-2.7-0.36-3.91-1.04
	c-1.2-0.68-1.54-1.16-2.12-2.37c-0.57-1.21-0.58-2.16-0.75-3.68s-0.02-2.49-0.1-3.92c-0.08-1.42-0.08-2.25-0.32-3.21
	c-0.23-0.95-0.42-1.48-0.87-1.56c-0.45-0.08-0.62,0.3-1.37,1.18c-0.74,0.89-1.06,1.61-2.34,3.24c-1.28,1.62-2.09,2.77-4.07,4.87
	c-1.98,2.1-3.21,3.48-5.82,5.63c-2.61,2.16-4.21,3.37-7.22,5.16c-3.02,1.78-4.75,2.64-7.86,3.77c-3.1,1.13-4.79,1.54-7.66,1.87
	c-2.87,0.32-4.4,0.22-6.68-0.24c-2.29-0.47-3.4-0.84-4.74-2.07c-1.33-1.23-1.74-2.03-1.95-4.08c-0.22-2.05,0.01-3.53,0.89-6.16
	c0.88-2.62,1.77-4.44,3.5-6.97c1.73-2.52,3.17-3.78,5.16-5.64c1.98-1.87,3.23-2.68,4.77-3.67c1.53-1,2.24-1.31,2.9-1.31
	c0.65,0,0.65,0.4,0.37,1.3c-0.29,0.91-0.61,1.62-1.8,3.21c-1.19,1.58-2.28,2.72-4.16,4.73s-3.09,3.28-5.23,5.32
	c-2.14,2.03-3.61,3.11-5.45,4.85c-1.85,1.74-2.63,2.63-3.76,3.85c-1.13,1.23-1.64,1.65-1.88,2.28
	C1015.84,90.8,1016.05,91.12,1016.75,91.07"/>
<path stroke="#000000" d="M1182.27,76.17c-0.34-0.6-0.88-1.27-2.27-1.94c-1.39-0.68-2.39-1.15-4.68-1.45
	c-2.28-0.3-3.94-0.54-6.76-0.06c-2.81,0.47-4.44,1.1-7.32,2.44s-4.54,2.24-7.08,4.26c-2.54,2.01-3.8,3.42-5.61,5.81
	c-1.82,2.39-2.73,3.84-3.48,6.13c-0.74,2.29-0.89,3.59-0.27,5.32c0.63,1.74,1.53,2.62,3.38,3.36c1.84,0.74,3.23,0.79,5.83,0.34
	c2.6-0.44,4.15-1.18,7.17-2.58c3.02-1.39,4.88-2.49,7.92-4.39c3.03-1.9,4.65-3.19,7.25-5.12c2.6-1.93,3.94-3.1,5.75-4.54
	c1.82-1.44,2.61-2.17,3.34-2.67c0.73-0.5,0.49-0.51,0.31,0.18c-0.19,0.69-0.81,1.49-1.25,3.29c-0.44,1.8-0.79,3.38-0.94,5.7
	c-0.14,2.33-0.14,3.85,0.23,5.95c0.38,2.09,0.66,3.12,1.65,4.55c0.99,1.42,1.8,2.11,3.32,2.59c1.51,0.48,2.4,0.43,4.24-0.21
	c1.84-0.64,2.89-1.37,4.98-2.98c2.09-1.62,3.14-2.83,5.47-5.09c2.32-2.26,3.76-3.85,6.17-6.22c2.4-2.37,3.84-3.85,5.84-5.65
	c2.01-1.81,2.89-2.6,4.18-3.38c1.28-0.78,1.69-0.83,2.26-0.55c0.56,0.29,0.48,0.73,0.57,1.97c0.09,1.23-0.26,2.41-0.13,4.19
	c0.13,1.78,0.28,2.99,0.79,4.72c0.5,1.73,0.82,2.57,1.75,3.93c0.92,1.36,1.48,2.05,2.85,2.86c1.38,0.81,2.21,1.07,4,1.2
	c1.8,0.13,2.81-0.07,4.98-0.54c2.17-0.48,3.44-0.87,5.86-1.84c2.42-0.97,3.81-1.82,6.24-3.02c2.43-1.2,3.76-2.09,5.92-2.98
	c2.16-0.9,3.22-1.31,4.88-1.51c1.67-0.19,2.33-0.1,3.46,0.52s1.43,1.32,2.18,2.59c0.74,1.26,0.91,2.22,1.55,3.74
	c0.64,1.51,1.02,2.54,1.63,3.83c0.6,1.3,0.86,1.76,1.39,2.66c0.52,0.9,0.79,1.55,1.22,1.86c0.43,0.32,0.78,0.21,0.95-0.3
	c0.16-0.52,0.04-1.22-0.12-2.28c-0.16-1.05-0.25-1.59-0.69-3c-0.44-1.41-0.77-2.44-1.52-4.04c-0.76-1.61-1.13-2.57-2.24-3.98
	c-1.11-1.41-1.71-2.25-3.3-3.06c-1.59-0.82-2.57-1.05-4.66-1.02c-2.08,0.03-3.35,0.37-5.77,1.16c-2.42,0.8-3.83,1.68-6.31,2.83
	c-2.48,1.15-3.78,1.98-6.07,2.95c-2.29,0.96-3.46,1.33-5.36,1.88c-1.9,0.55-2.75,0.8-4.15,0.86c-1.4,0.05-1.92-0.04-2.85-0.58
	c-0.94-0.54-1.3-1.03-1.85-2.12c-0.54-1.09-0.6-1.79-0.86-3.33c-0.27-1.55-0.17-2.63-0.46-4.39c-0.28-1.77-0.32-3.03-0.98-4.45
	c-0.65-1.42-1.08-2.09-2.29-2.63c-1.2-0.55-1.94-0.67-3.74-0.08c-1.8,0.59-3.04,1.23-5.27,3.02c-2.22,1.8-3.45,3.54-5.88,5.94
	c-2.43,2.39-3.93,3.88-6.26,6.04c-2.33,2.16-3.52,3.19-5.4,4.77c-1.89,1.58-2.68,2.36-4.01,3.11c-1.32,0.76-1.72,0.89-2.62,0.65
	c-0.9-0.24-1.38-0.73-1.87-1.83c-0.49-1.09-0.58-1.84-0.57-3.65s0.46-3.18,0.62-5.39c0.16-2.21,0.25-3.75,0.17-5.66
	c-0.07-1.91-0.02-2.83-0.55-3.87c-0.54-1.05-0.79-1.45-2.11-1.35c-1.33,0.11-2.44,0.57-4.5,1.86c-2.06,1.29-3.24,2.68-5.81,4.6
	c-2.56,1.93-4.07,3.23-7.02,5.03c-2.96,1.8-4.88,2.7-7.74,3.97c-2.85,1.27-4.33,1.8-6.56,2.37c-2.22,0.58-3.2,0.76-4.55,0.49
	c-1.35-0.27-1.92-0.72-2.19-1.85c-0.28-1.13-0.02-2,0.83-3.82c0.84-1.81,1.71-3.12,3.39-5.26c1.69-2.14,2.71-3.59,5.03-5.42
	c2.31-1.83,3.91-2.62,6.55-3.74c2.64-1.11,4.13-1.47,6.64-1.83s3.89-0.1,5.91,0.02c2.03,0.12,2.85,0.35,4.2,0.58
	c1.34,0.23,1.91,0.66,2.53,0.57C1182.34,77.12,1182.62,76.77,1182.27,76.17"/>
<path stroke="#000000" d="M1302.69,115.38c0.11,0.27,0.28,0.24,0.28-0.05c-0.01-0.3-0.18-1.14-0.29-1.41
	c-0.11-0.27-0.28-0.24-0.28,0.06C1302.4,114.27,1302.57,115.11,1302.69,115.38"/>
</svg>
